{"accessors":[{"bufferView":1,"componentType":5126,"count":32,"max":[0.23999999463558197,0.23999999463558197,0.23984800279140472],"min":[-0.23999999463558197,-0.23999999463558197,-0.23984800279140472],"type":"VEC3"},{"bufferView":1,"byteOffset":384,"componentType":5126,"count":32,"max":[1,1,0],"min":[-1,-1,0],"type":"VEC3"},{"bufferView":0,"componentType":5125,"count":96,"type":"SCALAR"},{"bufferView":1,"byteOffset":768,"componentType":5126,"count":32,"max":[0.23999999463558197,0.23999999463558197,0.2909975051879883],"min":[-0.23999999463558197,-0.23999999463558197,-0.2909975051879883],"type":"VEC3"},{"bufferView":1,"byteOffset":1152,"componentType":5126,"count":32,"max":[1,1,0],"min":[-1,-1,0],"type":"VEC3"},{"bufferView":0,"byteOffset":384,"componentType":5125,"count":96,"type":"SCALAR"},{"bufferView":1,"byteOffset":1536,"componentType":5126,"count":32,"max":[0.23999999463558197,0.23999999463558197,0.26540300250053406],"min":[-0.23999999463558197,-0.23999999463558197,-0.26540300250053406],"type":"VEC3"},{"bufferView":1,"byteOffset":1920,"componentType":5126,"count":32,"max":[1,1,0],"min":[-1,-1,0],"type":"VEC3"},{"bufferView":0,"byteOffset":768,"componentType":5125,"count":96,"type":"SCALAR"},{"bufferView":1,"byteOffset":2304,"componentType":5126,"count":32,"max":[0.23999999463558197,0.23999999463558197,0.23982849717140198],"min":[-0.23999999463558197,-0.23999999463558197,-0.23982849717140198],"type":"VEC3"},{"bufferView":1,"byteOffset":2688,"componentType":5126,"count":32,"max":[1,1,0],"min":[-1,-1,0],"type":"VEC3"},{"bufferView":0,"byteOffset":1152,"componentType":5125,"count":96,"type":"SCALAR"},{"bufferView":1,"byteOffset":3072,"componentType":5126,"count":32,"max":[0.23999999463558197,0.23999999463558197,0.2909975051879883],"min":[-0.23999999463558197,-0.23999999463558197,-0.2909975051879883],"type":"VEC3"},{"bufferView":1,"byteOffset":3456,"componentType":5126,"count":32,"max":[1,1,0],"min":[-1,-1,0],"type":"VEC3"},{"bufferView":0,"byteOffset":1536,"componentType":5125,"count":96,"type":"SCALAR"},{"bufferView":1,"byteOffset":3840,"componentType":5126,"count":32,"max":[0.23999999463558197,0.23999999463558197,0.26540350914001465],"min":[-0.23999999463558197,-0.23999999463558197,-0.26540350914001465],"type":"VEC3"},{"bufferView":1,"byteOffset":4224,"componentType":5126,"count":32,"max":[1,1,0],"min":[-1,-1,0],"type":"VEC3"},{"bufferView":0,"byteOffset":1920,"componentType":5125,"count":96,"type":"SCALAR"},{"bufferView":1,"byteOffset":4608,"componentType":5126,"count":32,"max":[0.23999999463558197,0.23999999463558197,0.26540350914001465],"min":[-0.23999999463558197,-0.23999999463558197,-0.26540350914001465],"type":"VEC3"},{"bufferView":1,"byteOffset":4992,"componentType":5126,"count":32,"max":[1,1,0],"min":[-1,-1,0],"type":"VEC3"},{"bufferView":0,"byteOffset":2304,"componentType":5125,"count":96,"type":"SCALAR"},{"bufferView":1,"byteOffset":5376,"componentType":5126,"count":32,"max":[0.23999999463558197,0.23999999463558197,0.29097801446914673],"min":[-0.23999999463558197,-0.23999999463558197,-0.29097801446914673],"type":"VEC3"},{"bufferView":1,"byteOffset":5760,"componentType":5126,"count":32,"max":[1,1,0],"min":[-1,-1,0],"type":"VEC3"},{"bufferView":0,"byteOffset":2688,"componentType":5125,"count":96,"type":"SCALAR"},{"bufferView":1,"byteOffset":6144,"componentType":5126,"count":32,"max":[0.23999999463558197,0.23999999463558197,0.2909975051879883],"min":[-0.23999999463558197,-0.23999999463558197,-0.2909975051879883],"type":"VEC3"},{"bufferView":1,"byteOffset":6528,"componentType":5126,"count":32,"max":[1,1,0],"min":[-1,-1,0],"type":"VEC3"},{"bufferView":0,"byteOffset":3072,"componentType":5125,"count":96,"type":"SCALAR"},{"bufferView":1,"byteOffset":6912,"componentType":5126,"count":32,"max":[0.23999999463558197,0.23999999463558197,0.29097801446914673],"min":[-0.23999999463558197,-0.23999999463558197,-0.29097801446914673],"type":"VEC3"},{"bufferView":1,"byteOffset":7296,"componentType":5126,"count":32,"max":[1,1,0],"min":[-1,-1,0],"type":"VEC3"},{"bufferView":0,"byteOffset":3456,"componentType":5125,"count":96,"type":"SCALAR"},{"bufferView":1,"byteOffset":7680,"componentType":5126,"count":32,"max":[0.23999999463558197,0.23999999463558197,0.2910029888153076],"min":[-0.23999999463558197,-0.23999999463558197,-0.2910029888153076],"type":"VEC3"},{"bufferView":1,"byteOffset":8064,"componentType":5126,"count":32,"max":[1,1,0],"min":[-1,-1,0],"type":"VEC3"},{"bufferView":0,"byteOffset":3840,"componentType":5125,"count":96,"type":"SCALAR"},{"bufferView":1,"byteOffset":8448,"componentType":5126,"count":32,"max":[0.23999999463558197,0.23999999463558197,0.2909975051879883],"min":[-0.23999999463558197,-0.23999999463558197,-0.2909975051879883],"type":"VEC3"},{"bufferView":1,"byteOffset":8832,"componentType":5126,"count":32,"max":[1,1,0],"min":[-1,-1,0],"type":"VEC3"},{"bufferView":0,"byteOffset":4224,"componentType":5125,"count":96,"type":"SCALAR"},{"bufferView":1,"byteOffset":9216,"componentType":5126,"count":32,"max":[0.23999999463558197,0.23999999463558197,0.2910029888153076],"min":[-0.23999999463558197,-0.23999999463558197,-0.2910029888153076],"type":"VEC3"},{"bufferView":1,"byteOffset":9600,"componentType":5126,"count":32,"max":[1,1,0],"min":[-1,-1,0],"type":"VEC3"},{"bufferView":0,"byteOffset":4608,"componentType":5125,"count":96,"type":"SCALAR"},{"bufferView":1,"byteOffset":9984,"componentType":5126,"count":32,"max":[0.23999999463558197,0.23999999463558197,0.26540300250053406],"min":[-0.23999999463558197,-0.23999999463558197,-0.26540300250053406],"type":"VEC3"},{"bufferView":1,"byteOffset":10368,"componentType":5126,"count":32,"max":[1,1,0],"min":[-1,-1,0],"type":"VEC3"},{"bufferView":0,"byteOffset":4992,"componentType":5125,"count":96,"type":"SCALAR"},{"bufferView":1,"byteOffset":10752,"componentType":5126,"count":32,"max":[0.23999999463558197,0.23999999463558197,0.26540300250053406],"min":[-0.23999999463558197,-0.23999999463558197,-0.26540300250053406],"type":"VEC3"},{"bufferView":1,"byteOffset":11136,"componentType":5126,"count":32,"max":[1,1,0],"min":[-1,-1,0],"type":"VEC3"},{"bufferView":0,"byteOffset":5376,"componentType":5125,"count":96,"type":"SCALAR"},{"bufferView":1,"byteOffset":11520,"componentType":5126,"count":32,"max":[0.23999999463558197,0.23999999463558197,0.26540300250053406],"min":[-0.23999999463558197,-0.23999999463558197,-0.26540300250053406],"type":"VEC3"},{"bufferView":1,"byteOffset":11904,"componentType":5126,"count":32,"max":[1,1,0],"min":[-1,-1,0],"type":"VEC3"},{"bufferView":0,"byteOffset":5760,"componentType":5125,"count":96,"type":"SCALAR"},{"bufferView":1,"byteOffset":12288,"componentType":5126,"count":32,"max":[0.23999999463558197,0.23999999463558197,0.2909969985485077],"min":[-0.23999999463558197,-0.23999999463558197,-0.2909969985485077],"type":"VEC3"},{"bufferView":1,"byteOffset":12672,"componentType":5126,"count":32,"max":[1,1,0],"min":[-1,-1,0],"type":"VEC3"},{"bufferView":0,"byteOffset":6144,"componentType":5125,"count":96,"type":"SCALAR"},{"bufferView":1,"byteOffset":13056,"componentType":5126,"count":32,"max":[0.23999999463558197,0.23999999463558197,0.26540300250053406],"min":[-0.23999999463558197,-0.23999999463558197,-0.26540300250053406],"type":"VEC3"},{"bufferView":1,"byteOffset":13440,"componentType":5126,"count":32,"max":[1,1,0],"min":[-1,-1,0],"type":"VEC3"},{"bufferView":0,"byteOffset":6528,"componentType":5125,"count":96,"type":"SCALAR"},{"bufferView":1,"byteOffset":13824,"componentType":5126,"count":32,"max":[0.23999999463558197,0.23999999463558197,0.29097801446914673],"min":[-0.23999999463558197,-0.23999999463558197,-0.29097801446914673],"type":"VEC3"},{"bufferView":1,"byteOffset":14208,"componentType":5126,"count":32,"max":[1,1,0],"min":[-1,-1,0],"type":"VEC3"},{"bufferView":0,"byteOffset":6912,"componentType":5125,"count":96,"type":"SCALAR"},{"bufferView":1,"byteOffset":14592,"componentType":5126,"count":32,"max":[0.23999999463558197,0.23999999463558197,0.2909975051879883],"min":[-0.23999999463558197,-0.23999999463558197,-0.2909975051879883],"type":"VEC3"},{"bufferView":1,"byteOffset":14976,"componentType":5126,"count":32,"max":[1,1,0],"min":[-1,-1,0],"type":"VEC3"},{"bufferView":0,"byteOffset":7296,"componentType":5125,"count":96,"type":"SCALAR"},{"bufferView":1,"byteOffset":15360,"componentType":5126,"count":32,"max":[0.23999999463558197,0.23999999463558197,0.29097801446914673],"min":[-0.23999999463558197,-0.23999999463558197,-0.29097801446914673],"type":"VEC3"},{"bufferView":1,"byteOffset":15744,"componentType":5126,"count":32,"max":[1,1,0],"min":[-1,-1,0],"type":"VEC3"},{"bufferView":0,"byteOffset":7680,"componentType":5125,"count":96,"type":"SCALAR"},{"bufferView":1,"byteOffset":16128,"componentType":5126,"count":32,"max":[0.23999999463558197,0.23999999463558197,0.26542800664901733],"min":[-0.23999999463558197,-0.23999999463558197,-0.26542800664901733],"type":"VEC3"},{"bufferView":1,"byteOffset":16512,"componentType":5126,"count":32,"max":[1,1,0],"min":[-1,-1,0],"type":"VEC3"},{"bufferView":0,"byteOffset":8064,"componentType":5125,"count":96,"type":"SCALAR"},{"bufferView":1,"byteOffset":16896,"componentType":5126,"count":32,"max":[0.23999999463558197,0.23999999463558197,0.2654224932193756],"min":[-0.23999999463558197,-0.23999999463558197,-0.2654224932193756],"type":"VEC3"},{"bufferView":1,"byteOffset":17280,"componentType":5126,"count":32,"max":[1,1,0],"min":[-1,-1,0],"type":"VEC3"},{"bufferView":0,"byteOffset":8448,"componentType":5125,"count":96,"type":"SCALAR"},{"bufferView":1,"byteOffset":17664,"componentType":5126,"count":32,"max":[0.23999999463558197,0.23999999463558197,0.2910029888153076],"min":[-0.23999999463558197,-0.23999999463558197,-0.2910029888153076],"type":"VEC3"},{"bufferView":1,"byteOffset":18048,"componentType":5126,"count":32,"max":[1,1,0],"min":[-1,-1,0],"type":"VEC3"},{"bufferView":0,"byteOffset":8832,"componentType":5125,"count":96,"type":"SCALAR"},{"bufferView":1,"byteOffset":18432,"componentType":5126,"count":32,"max":[0.23999999463558197,0.23999999463558197,0.23982849717140198],"min":[-0.23999999463558197,-0.23999999463558197,-0.23982849717140198],"type":"VEC3"},{"bufferView":1,"byteOffset":18816,"componentType":5126,"count":32,"max":[1,1,0],"min":[-1,-1,0],"type":"VEC3"},{"bufferView":0,"byteOffset":9216,"componentType":5125,"count":96,"type":"SCALAR"},{"bufferView":1,"byteOffset":19200,"componentType":5126,"count":32,"max":[0.23999999463558197,0.23999999463558197,0.26540300250053406],"min":[-0.23999999463558197,-0.23999999463558197,-0.26540300250053406],"type":"VEC3"},{"bufferView":1,"byteOffset":19584,"componentType":5126,"count":32,"max":[1,1,0],"min":[-1,-1,0],"type":"VEC3"},{"bufferView":0,"byteOffset":9600,"componentType":5125,"count":96,"type":"SCALAR"},{"bufferView":1,"byteOffset":19968,"componentType":5126,"count":32,"max":[0.23999999463558197,0.23999999463558197,0.23984749615192413],"min":[-0.23999999463558197,-0.23999999463558197,-0.23984749615192413],"type":"VEC3"},{"bufferView":1,"byteOffset":20352,"componentType":5126,"count":32,"max":[1,1,0],"min":[-1,-1,0],"type":"VEC3"},{"bufferView":0,"byteOffset":9984,"componentType":5125,"count":96,"type":"SCALAR"},{"bufferView":1,"byteOffset":20736,"componentType":5126,"count":32,"max":[0.23999999463558197,0.23999999463558197,0.23982849717140198],"min":[-0.23999999463558197,-0.23999999463558197,-0.23982849717140198],"type":"VEC3"},{"bufferView":1,"byteOffset":21120,"componentType":5126,"count":32,"max":[1,1,0],"min":[-1,-1,0],"type":"VEC3"},{"bufferView":0,"byteOffset":10368,"componentType":5125,"count":96,"type":"SCALAR"},{"bufferView":1,"byteOffset":21504,"componentType":5126,"count":32,"max":[0.23999999463558197,0.23999999463558197,0.26540300250053406],"min":[-0.23999999463558197,-0.23999999463558197,-0.26540300250053406],"type":"VEC3"},{"bufferView":1,"byteOffset":21888,"componentType":5126,"count":32,"max":[1,1,0],"min":[-1,-1,0],"type":"VEC3"},{"bufferView":0,"byteOffset":10752,"componentType":5125,"count":96,"type":"SCALAR"},{"bufferView":1,"byteOffset":22272,"componentType":5126,"count":32,"max":[0.23999999463558197,0.23999999463558197,0.2654229998588562],"min":[-0.23999999463558197,-0.23999999463558197,-0.2654229998588562],"type":"VEC3"},{"bufferView":1,"byteOffset":22656,"componentType":5126,"count":32,"max":[1,1,0],"min":[-1,-1,0],"type":"VEC3"},{"bufferView":0,"byteOffset":11136,"componentType":5125,"count":96,"type":"SCALAR"},{"bufferView":1,"byteOffset":23040,"componentType":5126,"count":32,"max":[0.23999999463558197,0.23999999463558197,0.29097801446914673],"min":[-0.23999999463558197,-0.23999999463558197,-0.29097801446914673],"type":"VEC3"},{"bufferView":1,"byteOffset":23424,"componentType":5126,"count":32,"max":[1,1,0],"min":[-1,-1,0],"type":"VEC3"},{"bufferView":0,"byteOffset":11520,"componentType":5125,"count":96,"type":"SCALAR"},{"bufferView":1,"byteOffset":23808,"componentType":5126,"count":32,"max":[0.23999999463558197,0.23999999463558197,0.26540350914001465],"min":[-0.23999999463558197,-0.23999999463558197,-0.26540350914001465],"type":"VEC3"},{"bufferView":1,"byteOffset":24192,"componentType":5126,"count":32,"max":[1,1,0],"min":[-1,-1,0],"type":"VEC3"},{"bufferView":0,"byteOffset":11904,"componentType":5125,"count":96,"type":"SCALAR"},{"bufferView":1,"byteOffset":24576,"componentType":5126,"count":32,"max":[0.23999999463558197,0.23999999463558197,0.2654229998588562],"min":[-0.23999999463558197,-0.23999999463558197,-0.2654229998588562],"type":"VEC3"},{"bufferView":1,"byteOffset":24960,"componentType":5126,"count":32,"max":[1,1,0],"min":[-1,-1,0],"type":"VEC3"},{"bufferView":0,"byteOffset":12288,"componentType":5125,"count":96,"type":"SCALAR"},{"bufferView":1,"byteOffset":25344,"componentType":5126,"count":32,"max":[0.23999999463558197,0.23999999463558197,0.29097801446914673],"min":[-0.23999999463558197,-0.23999999463558197,-0.29097801446914673],"type":"VEC3"},{"bufferView":1,"byteOffset":25728,"componentType":5126,"count":32,"max":[1,1,0],"min":[-1,-1,0],"type":"VEC3"},{"bufferView":0,"byteOffset":12672,"componentType":5125,"count":96,"type":"SCALAR"},{"bufferView":1,"byteOffset":26112,"componentType":5126,"count":32,"max":[0.23999999463558197,0.23999999463558197,0.23982849717140198],"min":[-0.23999999463558197,-0.23999999463558197,-0.23982849717140198],"type":"VEC3"},{"bufferView":1,"byteOffset":26496,"componentType":5126,"count":32,"max":[1,1,0],"min":[-1,-1,0],"type":"VEC3"},{"bufferView":0,"byteOffset":13056,"componentType":5125,"count":96,"type":"SCALAR"},{"bufferView":1,"byteOffset":26880,"componentType":5126,"count":32,"max":[0.23999999463558197,0.23999999463558197,0.2654224932193756],"min":[-0.23999999463558197,-0.23999999463558197,-0.2654224932193756],"type":"VEC3"},{"bufferView":1,"byteOffset":27264,"componentType":5126,"count":32,"max":[1,1,0],"min":[-1,-1,0],"type":"VEC3"},{"bufferView":0,"byteOffset":13440,"componentType":5125,"count":96,"type":"SCALAR"},{"bufferView":1,"byteOffset":27648,"componentType":5126,"count":32,"max":[0.23999999463558197,0.23999999463558197,0.26540350914001465],"min":[-0.23999999463558197,-0.23999999463558197,-0.26540350914001465],"type":"VEC3"},{"bufferView":1,"byteOffset":28032,"componentType":5126,"count":32,"max":[1,1,0],"min":[-1,-1,0],"type":"VEC3"},{"bufferView":0,"byteOffset":13824,"componentType":5125,"count":96,"type":"SCALAR"},{"bufferView":1,"byteOffset":28416,"componentType":5126,"count":32,"max":[0.23999999463558197,0.23999999463558197,0.2654229998588562],"min":[-0.23999999463558197,-0.23999999463558197,-0.2654229998588562],"type":"VEC3"},{"bufferView":1,"byteOffset":28800,"componentType":5126,"count":32,"max":[1,1,0],"min":[-1,-1,0],"type":"VEC3"},{"bufferView":0,"byteOffset":14208,"componentType":5125,"count":96,"type":"SCALAR"},{"bufferView":1,"byteOffset":29184,"componentType":5126,"count":32,"max":[0.23999999463558197,0.23999999463558197,0.26540300250053406],"min":[-0.23999999463558197,-0.23999999463558197,-0.26540300250053406],"type":"VEC3"},{"bufferView":1,"byteOffset":29568,"componentType":5126,"count":32,"max":[1,1,0],"min":[-1,-1,0],"type":"VEC3"},{"bufferView":0,"byteOffset":14592,"componentType":5125,"count":96,"type":"SCALAR"},{"bufferView":1,"byteOffset":29952,"componentType":5126,"count":32,"max":[0.23999999463558197,0.23999999463558197,0.2654229998588562],"min":[-0.23999999463558197,-0.23999999463558197,-0.2654229998588562],"type":"VEC3"},{"bufferView":1,"byteOffset":30336,"componentType":5126,"count":32,"max":[1,1,0],"min":[-1,-1,0],"type":"VEC3"},{"bufferView":0,"byteOffset":14976,"componentType":5125,"count":96,"type":"SCALAR"},{"bufferView":1,"byteOffset":30720,"componentType":5126,"count":32,"max":[0.23999999463558197,0.23999999463558197,0.26542800664901733],"min":[-0.23999999463558197,-0.23999999463558197,-0.26542800664901733],"type":"VEC3"},{"bufferView":1,"byteOffset":31104,"componentType":5126,"count":32,"max":[1,1,0],"min":[-1,-1,0],"type":"VEC3"},{"bufferView":0,"byteOffset":15360,"componentType":5125,"count":96,"type":"SCALAR"},{"bufferView":1,"byteOffset":31488,"componentType":5126,"count":32,"max":[0.23999999463558197,0.23999999463558197,0.26540300250053406],"min":[-0.23999999463558197,-0.23999999463558197,-0.26540300250053406],"type":"VEC3"},{"bufferView":1,"byteOffset":31872,"componentType":5126,"count":32,"max":[1,1,0],"min":[-1,-1,0],"type":"VEC3"},{"bufferView":0,"byteOffset":15744,"componentType":5125,"count":96,"type":"SCALAR"},{"bufferView":1,"byteOffset":32256,"componentType":5126,"count":32,"max":[0.23999999463558197,0.23999999463558197,0.2909969985485077],"min":[-0.23999999463558197,-0.23999999463558197,-0.2909969985485077],"type":"VEC3"},{"bufferView":1,"byteOffset":32640,"componentType":5126,"count":32,"max":[1,1,0],"min":[-1,-1,0],"type":"VEC3"},{"bufferView":0,"byteOffset":16128,"componentType":5125,"count":96,"type":"SCALAR"},{"bufferView":1,"byteOffset":33024,"componentType":5126,"count":32,"max":[0.23999999463558197,0.23999999463558197,0.26540300250053406],"min":[-0.23999999463558197,-0.23999999463558197,-0.26540300250053406],"type":"VEC3"},{"bufferView":1,"byteOffset":33408,"componentType":5126,"count":32,"max":[1,1,0],"min":[-1,-1,0],"type":"VEC3"},{"bufferView":0,"byteOffset":16512,"componentType":5125,"count":96,"type":"SCALAR"},{"bufferView":1,"byteOffset":33792,"componentType":5126,"count":32,"max":[0.23999999463558197,0.23999999463558197,0.29097801446914673],"min":[-0.23999999463558197,-0.23999999463558197,-0.29097801446914673],"type":"VEC3"},{"bufferView":1,"byteOffset":34176,"componentType":5126,"count":32,"max":[1,1,0],"min":[-1,-1,0],"type":"VEC3"},{"bufferView":0,"byteOffset":16896,"componentType":5125,"count":96,"type":"SCALAR"},{"bufferView":1,"byteOffset":34560,"componentType":5126,"count":32,"max":[0.23999999463558197,0.23999999463558197,0.2909975051879883],"min":[-0.23999999463558197,-0.23999999463558197,-0.2909975051879883],"type":"VEC3"},{"bufferView":1,"byteOffset":34944,"componentType":5126,"count":32,"max":[1,1,0],"min":[-1,-1,0],"type":"VEC3"},{"bufferView":0,"byteOffset":17280,"componentType":5125,"count":96,"type":"SCALAR"},{"bufferView":1,"byteOffset":35328,"componentType":5126,"count":32,"max":[0.23999999463558197,0.23999999463558197,0.29097801446914673],"min":[-0.23999999463558197,-0.23999999463558197,-0.29097801446914673],"type":"VEC3"},{"bufferView":1,"byteOffset":35712,"componentType":5126,"count":32,"max":[1,1,0],"min":[-1,-1,0],"type":"VEC3"},{"bufferView":0,"byteOffset":17664,"componentType":5125,"count":96,"type":"SCALAR"},{"bufferView":1,"byteOffset":36096,"componentType":5126,"count":32,"max":[0.23999999463558197,0.23999999463558197,0.29097801446914673],"min":[-0.23999999463558197,-0.23999999463558197,-0.29097801446914673],"type":"VEC3"},{"bufferView":1,"byteOffset":36480,"componentType":5126,"count":32,"max":[1,1,0],"min":[-1,-1,0],"type":"VEC3"},{"bufferView":0,"byteOffset":18048,"componentType":5125,"count":96,"type":"SCALAR"},{"bufferView":1,"byteOffset":36864,"componentType":5126,"count":32,"max":[0.23999999463558197,0.23999999463558197,0.2909975051879883],"min":[-0.23999999463558197,-0.23999999463558197,-0.2909975051879883],"type":"VEC3"},{"bufferView":1,"byteOffset":37248,"componentType":5126,"count":32,"max":[1,1,0],"min":[-1,-1,0],"type":"VEC3"},{"bufferView":0,"byteOffset":18432,"componentType":5125,"count":96,"type":"SCALAR"},{"bufferView":1,"byteOffset":37632,"componentType":5126,"count":32,"max":[0.23999999463558197,0.23999999463558197,0.29097801446914673],"min":[-0.23999999463558197,-0.23999999463558197,-0.29097801446914673],"type":"VEC3"},{"bufferView":1,"byteOffset":38016,"componentType":5126,"count":32,"max":[1,1,0],"min":[-1,-1,0],"type":"VEC3"},{"bufferView":0,"byteOffset":18816,"componentType":5125,"count":96,"type":"SCALAR"},{"bufferView":1,"byteOffset":38400,"componentType":5126,"count":32,"max":[0.23999999463558197,0.23999999463558197,0.2910029888153076],"min":[-0.23999999463558197,-0.23999999463558197,-0.2910029888153076],"type":"VEC3"},{"bufferView":1,"byteOffset":38784,"componentType":5126,"count":32,"max":[1,1,0],"min":[-1,-1,0],"type":"VEC3"},{"bufferView":0,"byteOffset":19200,"componentType":5125,"count":96,"type":"SCALAR"},{"bufferView":1,"byteOffset":39168,"componentType":5126,"count":32,"max":[0.23999999463558197,0.23999999463558197,0.2910029888153076],"min":[-0.23999999463558197,-0.23999999463558197,-0.2910029888153076],"type":"VEC3"},{"bufferView":1,"byteOffset":39552,"componentType":5126,"count":32,"max":[1,1,0],"min":[-1,-1,0],"type":"VEC3"},{"bufferView":0,"byteOffset":19584,"componentType":5125,"count":96,"type":"SCALAR"},{"bufferView":1,"byteOffset":39936,"componentType":5126,"count":32,"max":[0.23999999463558197,0.23999999463558197,0.26540300250053406],"min":[-0.23999999463558197,-0.23999999463558197,-0.26540300250053406],"type":"VEC3"},{"bufferView":1,"byteOffset":40320,"componentType":5126,"count":32,"max":[1,1,0],"min":[-1,-1,0],"type":"VEC3"},{"bufferView":0,"byteOffset":19968,"componentType":5125,"count":96,"type":"SCALAR"},{"bufferView":1,"byteOffset":40704,"componentType":5126,"count":32,"max":[0.23999999463558197,0.23999999463558197,0.2909969985485077],"min":[-0.23999999463558197,-0.23999999463558197,-0.2909969985485077],"type":"VEC3"},{"bufferView":1,"byteOffset":41088,"componentType":5126,"count":32,"max":[1,1,0],"min":[-1,-1,0],"type":"VEC3"},{"bufferView":0,"byteOffset":20352,"componentType":5125,"count":96,"type":"SCALAR"},{"bufferView":1,"byteOffset":41472,"componentType":5126,"count":32,"max":[0.23999999463558197,0.23999999463558197,0.26540300250053406],"min":[-0.23999999463558197,-0.23999999463558197,-0.26540300250053406],"type":"VEC3"},{"bufferView":1,"byteOffset":41856,"componentType":5126,"count":32,"max":[1,1,0],"min":[-1,-1,0],"type":"VEC3"},{"bufferView":0,"byteOffset":20736,"componentType":5125,"count":96,"type":"SCALAR"},{"bufferView":1,"byteOffset":42240,"componentType":5126,"count":32,"max":[0.23999999463558197,0.23999999463558197,0.29097801446914673],"min":[-0.23999999463558197,-0.23999999463558197,-0.29097801446914673],"type":"VEC3"},{"bufferView":1,"byteOffset":42624,"componentType":5126,"count":32,"max":[1,1,0],"min":[-1,-1,0],"type":"VEC3"},{"bufferView":0,"byteOffset":21120,"componentType":5125,"count":96,"type":"SCALAR"},{"bufferView":1,"byteOffset":43008,"componentType":5126,"count":32,"max":[0.23999999463558197,0.23999999463558197,0.2909975051879883],"min":[-0.23999999463558197,-0.23999999463558197,-0.2909975051879883],"type":"VEC3"},{"bufferView":1,"byteOffset":43392,"componentType":5126,"count":32,"max":[1,1,0],"min":[-1,-1,0],"type":"VEC3"},{"bufferView":0,"byteOffset":21504,"componentType":5125,"count":96,"type":"SCALAR"},{"bufferView":1,"byteOffset":43776,"componentType":5126,"count":32,"max":[0.23999999463558197,0.23999999463558197,0.29097801446914673],"min":[-0.23999999463558197,-0.23999999463558197,-0.29097801446914673],"type":"VEC3"},{"bufferView":1,"byteOffset":44160,"componentType":5126,"count":32,"max":[1,1,0],"min":[-1,-1,0],"type":"VEC3"},{"bufferView":0,"byteOffset":21888,"componentType":5125,"count":96,"type":"SCALAR"},{"bufferView":1,"byteOffset":44544,"componentType":5126,"count":32,"max":[0.23999999463558197,0.23999999463558197,0.29097801446914673],"min":[-0.23999999463558197,-0.23999999463558197,-0.29097801446914673],"type":"VEC3"},{"bufferView":1,"byteOffset":44928,"componentType":5126,"count":32,"max":[1,1,0],"min":[-1,-1,0],"type":"VEC3"},{"bufferView":0,"byteOffset":22272,"componentType":5125,"count":96,"type":"SCALAR"},{"bufferView":1,"byteOffset":45312,"componentType":5126,"count":32,"max":[0.23999999463558197,0.23999999463558197,0.2909975051879883],"min":[-0.23999999463558197,-0.23999999463558197,-0.2909975051879883],"type":"VEC3"},{"bufferView":1,"byteOffset":45696,"componentType":5126,"count":32,"max":[1,1,0],"min":[-1,-1,0],"type":"VEC3"},{"bufferView":0,"byteOffset":22656,"componentType":5125,"count":96,"type":"SCALAR"},{"bufferView":1,"byteOffset":46080,"componentType":5126,"count":32,"max":[0.23999999463558197,0.23999999463558197,0.29097801446914673],"min":[-0.23999999463558197,-0.23999999463558197,-0.29097801446914673],"type":"VEC3"},{"bufferView":1,"byteOffset":46464,"componentType":5126,"count":32,"max":[1,1,0],"min":[-1,-1,0],"type":"VEC3"},{"bufferView":0,"byteOffset":23040,"componentType":5125,"count":96,"type":"SCALAR"},{"bufferView":1,"byteOffset":46848,"componentType":5126,"count":32,"max":[0.23999999463558197,0.23999999463558197,0.2910029888153076],"min":[-0.23999999463558197,-0.23999999463558197,-0.2910029888153076],"type":"VEC3"},{"bufferView":1,"byteOffset":47232,"componentType":5126,"count":32,"max":[1,1,0],"min":[-1,-1,0],"type":"VEC3"},{"bufferView":0,"byteOffset":23424,"componentType":5125,"count":96,"type":"SCALAR"},{"bufferView":1,"byteOffset":47616,"componentType":5126,"count":32,"max":[0.23999999463558197,0.23999999463558197,0.2910029888153076],"min":[-0.23999999463558197,-0.23999999463558197,-0.2910029888153076],"type":"VEC3"},{"bufferView":1,"byteOffset":48000,"componentType":5126,"count":32,"max":[1,1,0],"min":[-1,-1,0],"type":"VEC3"},{"bufferView":0,"byteOffset":23808,"componentType":5125,"count":96,"type":"SCALAR"},{"bufferView":1,"byteOffset":48384,"componentType":5126,"count":242,"max":[0.4830000102519989,0.4830000102519989,0.4830000102519989],"min":[-0.4830000102519989,-0.4830000102519989,-0.4830000102519989],"type":"VEC3"},{"bufferView":1,"byteOffset":51288,"componentType":5126,"count":242,"max":[1,1,1],"min":[-1,-1,-1],"type":"VEC3"},{"bufferView":0,"byteOffset":24192,"componentType":5125,"count":1440,"type":"SCALAR"},{"bufferView":1,"byteOffset":54192,"componentType":5126,"count":242,"max":[0.4830000102519989,0.4830000102519989,0.4830000102519989],"min":[-0.4830000102519989,-0.4830000102519989,-0.4830000102519989],"type":"VEC3"},{"bufferView":1,"byteOffset":57096,"componentType":5126,"count":242,"max":[1,1,1],"min":[-1,-1,-1],"type":"VEC3"},{"bufferView":0,"byteOffset":29952,"componentType":5125,"count":1440,"type":"SCALAR"},{"bufferView":1,"byteOffset":60000,"componentType":5126,"count":242,"max":[0.527999997138977,0.527999997138977,0.527999997138977],"min":[-0.527999997138977,-0.527999997138977,-0.527999997138977],"type":"VEC3"},{"bufferView":1,"byteOffset":62904,"componentType":5126,"count":242,"max":[1,1,1],"min":[-1,-1,-1],"type":"VEC3"},{"bufferView":0,"byteOffset":35712,"componentType":5125,"count":1440,"type":"SCALAR"},{"bufferView":1,"byteOffset":65808,"componentType":5126,"count":242,"max":[0.527999997138977,0.527999997138977,0.527999997138977],"min":[-0.527999997138977,-0.527999997138977,-0.527999997138977],"type":"VEC3"},{"bufferView":1,"byteOffset":68712,"componentType":5126,"count":242,"max":[1,1,1],"min":[-1,-1,-1],"type":"VEC3"},{"bufferView":0,"byteOffset":41472,"componentType":5125,"count":1440,"type":"SCALAR"},{"bufferView":1,"byteOffset":71616,"componentType":5126,"count":242,"max":[0.527999997138977,0.527999997138977,0.527999997138977],"min":[-0.527999997138977,-0.527999997138977,-0.527999997138977],"type":"VEC3"},{"bufferView":1,"byteOffset":74520,"componentType":5126,"count":242,"max":[1,1,1],"min":[-1,-1,-1],"type":"VEC3"},{"bufferView":0,"byteOffset":47232,"componentType":5125,"count":1440,"type":"SCALAR"},{"bufferView":1,"byteOffset":77424,"componentType":5126,"count":242,"max":[0.4830000102519989,0.4830000102519989,0.4830000102519989],"min":[-0.4830000102519989,-0.4830000102519989,-0.4830000102519989],"type":"VEC3"},{"bufferView":1,"byteOffset":80328,"componentType":5126,"count":242,"max":[1,1,1],"min":[-1,-1,-1],"type":"VEC3"},{"bufferView":0,"byteOffset":52992,"componentType":5125,"count":1440,"type":"SCALAR"},{"bufferView":1,"byteOffset":83232,"componentType":5126,"count":242,"max":[0.4830000102519989,0.4830000102519989,0.4830000102519989],"min":[-0.4830000102519989,-0.4830000102519989,-0.4830000102519989],"type":"VEC3"},{"bufferView":1,"byteOffset":86136,"componentType":5126,"count":242,"max":[1,1,1],"min":[-1,-1,-1],"type":"VEC3"},{"bufferView":0,"byteOffset":58752,"componentType":5125,"count":1440,"type":"SCALAR"},{"bufferView":1,"byteOffset":89040,"componentType":5126,"count":242,"max":[0.4830000102519989,0.4830000102519989,0.4830000102519989],"min":[-0.4830000102519989,-0.4830000102519989,-0.4830000102519989],"type":"VEC3"},{"bufferView":1,"byteOffset":91944,"componentType":5126,"count":242,"max":[1,1,1],"min":[-1,-1,-1],"type":"VEC3"},{"bufferView":0,"byteOffset":64512,"componentType":5125,"count":1440,"type":"SCALAR"},{"bufferView":1,"byteOffset":94848,"componentType":5126,"count":242,"max":[0.4830000102519989,0.4830000102519989,0.4830000102519989],"min":[-0.4830000102519989,-0.4830000102519989,-0.4830000102519989],"type":"VEC3"},{"bufferView":1,"byteOffset":97752,"componentType":5126,"count":242,"max":[1,1,1],"min":[-1,-1,-1],"type":"VEC3"},{"bufferView":0,"byteOffset":70272,"componentType":5125,"count":1440,"type":"SCALAR"},{"bufferView":1,"byteOffset":100656,"componentType":5126,"count":242,"max":[0.4830000102519989,0.4830000102519989,0.4830000102519989],"min":[-0.4830000102519989,-0.4830000102519989,-0.4830000102519989],"type":"VEC3"},{"bufferView":1,"byteOffset":103560,"componentType":5126,"count":242,"max":[1,1,1],"min":[-1,-1,-1],"type":"VEC3"},{"bufferView":0,"byteOffset":76032,"componentType":5125,"count":1440,"type":"SCALAR"},{"bufferView":1,"byteOffset":106464,"componentType":5126,"count":242,"max":[0.527999997138977,0.527999997138977,0.527999997138977],"min":[-0.527999997138977,-0.527999997138977,-0.527999997138977],"type":"VEC3"},{"bufferView":1,"byteOffset":109368,"componentType":5126,"count":242,"max":[1,1,1],"min":[-1,-1,-1],"type":"VEC3"},{"bufferView":0,"byteOffset":81792,"componentType":5125,"count":1440,"type":"SCALAR"},{"bufferView":1,"byteOffset":112272,"componentType":5126,"count":242,"max":[0.527999997138977,0.527999997138977,0.527999997138977],"min":[-0.527999997138977,-0.527999997138977,-0.527999997138977],"type":"VEC3"},{"bufferView":1,"byteOffset":115176,"componentType":5126,"count":242,"max":[1,1,1],"min":[-1,-1,-1],"type":"VEC3"},{"bufferView":0,"byteOffset":87552,"componentType":5125,"count":1440,"type":"SCALAR"},{"bufferView":1,"byteOffset":118080,"componentType":5126,"count":242,"max":[0.527999997138977,0.527999997138977,0.527999997138977],"min":[-0.527999997138977,-0.527999997138977,-0.527999997138977],"type":"VEC3"},{"bufferView":1,"byteOffset":120984,"componentType":5126,"count":242,"max":[1,1,1],"min":[-1,-1,-1],"type":"VEC3"},{"bufferView":0,"byteOffset":93312,"componentType":5125,"count":1440,"type":"SCALAR"},{"bufferView":1,"byteOffset":123888,"componentType":5126,"count":242,"max":[0.527999997138977,0.527999997138977,0.527999997138977],"min":[-0.527999997138977,-0.527999997138977,-0.527999997138977],"type":"VEC3"},{"bufferView":1,"byteOffset":126792,"componentType":5126,"count":242,"max":[1,1,1],"min":[-1,-1,-1],"type":"VEC3"},{"bufferView":0,"byteOffset":99072,"componentType":5125,"count":1440,"type":"SCALAR"},{"bufferView":1,"byteOffset":129696,"componentType":5126,"count":242,"max":[0.527999997138977,0.527999997138977,0.527999997138977],"min":[-0.527999997138977,-0.527999997138977,-0.527999997138977],"type":"VEC3"},{"bufferView":1,"byteOffset":132600,"componentType":5126,"count":242,"max":[1,1,1],"min":[-1,-1,-1],"type":"VEC3"},{"bufferView":0,"byteOffset":104832,"componentType":5125,"count":1440,"type":"SCALAR"},{"bufferView":1,"byteOffset":135504,"componentType":5126,"count":242,"max":[0.527999997138977,0.527999997138977,0.527999997138977],"min":[-0.527999997138977,-0.527999997138977,-0.527999997138977],"type":"VEC3"},{"bufferView":1,"byteOffset":138408,"componentType":5126,"count":242,"max":[1,1,1],"min":[-1,-1,-1],"type":"VEC3"},{"bufferView":0,"byteOffset":110592,"componentType":5125,"count":1440,"type":"SCALAR"},{"bufferView":1,"byteOffset":141312,"componentType":5126,"count":242,"max":[0.527999997138977,0.527999997138977,0.527999997138977],"min":[-0.527999997138977,-0.527999997138977,-0.527999997138977],"type":"VEC3"},{"bufferView":1,"byteOffset":144216,"componentType":5126,"count":242,"max":[1,1,1],"min":[-1,-1,-1],"type":"VEC3"},{"bufferView":0,"byteOffset":116352,"componentType":5125,"count":1440,"type":"SCALAR"},{"bufferView":1,"byteOffset":147120,"componentType":5126,"count":242,"max":[0.527999997138977,0.527999997138977,0.527999997138977],"min":[-0.527999997138977,-0.527999997138977,-0.527999997138977],"type":"VEC3"},{"bufferView":1,"byteOffset":150024,"componentType":5126,"count":242,"max":[1,1,1],"min":[-1,-1,-1],"type":"VEC3"},{"bufferView":0,"byteOffset":122112,"componentType":5125,"count":1440,"type":"SCALAR"},{"bufferView":1,"byteOffset":152928,"componentType":5126,"count":242,"max":[0.527999997138977,0.527999997138977,0.527999997138977],"min":[-0.527999997138977,-0.527999997138977,-0.527999997138977],"type":"VEC3"},{"bufferView":1,"byteOffset":155832,"componentType":5126,"count":242,"max":[1,1,1],"min":[-1,-1,-1],"type":"VEC3"},{"bufferView":0,"byteOffset":127872,"componentType":5125,"count":1440,"type":"SCALAR"},{"bufferView":1,"byteOffset":158736,"componentType":5126,"count":242,"max":[0.4830000102519989,0.4830000102519989,0.4830000102519989],"min":[-0.4830000102519989,-0.4830000102519989,-0.4830000102519989],"type":"VEC3"},{"bufferView":1,"byteOffset":161640,"componentType":5126,"count":242,"max":[1,1,1],"min":[-1,-1,-1],"type":"VEC3"},{"bufferView":0,"byteOffset":133632,"componentType":5125,"count":1440,"type":"SCALAR"},{"bufferView":1,"byteOffset":164544,"componentType":5126,"count":242,"max":[0.4830000102519989,0.4830000102519989,0.4830000102519989],"min":[-0.4830000102519989,-0.4830000102519989,-0.4830000102519989],"type":"VEC3"},{"bufferView":1,"byteOffset":167448,"componentType":5126,"count":242,"max":[1,1,1],"min":[-1,-1,-1],"type":"VEC3"},{"bufferView":0,"byteOffset":139392,"componentType":5125,"count":1440,"type":"SCALAR"},{"bufferView":1,"byteOffset":170352,"componentType":5126,"count":242,"max":[0.4830000102519989,0.4830000102519989,0.4830000102519989],"min":[-0.4830000102519989,-0.4830000102519989,-0.4830000102519989],"type":"VEC3"},{"bufferView":1,"byteOffset":173256,"componentType":5126,"count":242,"max":[1,1,1],"min":[-1,-1,-1],"type":"VEC3"},{"bufferView":0,"byteOffset":145152,"componentType":5125,"count":1440,"type":"SCALAR"},{"bufferView":1,"byteOffset":176160,"componentType":5126,"count":242,"max":[0.4830000102519989,0.4830000102519989,0.4830000102519989],"min":[-0.4830000102519989,-0.4830000102519989,-0.4830000102519989],"type":"VEC3"},{"bufferView":1,"byteOffset":179064,"componentType":5126,"count":242,"max":[1,1,1],"min":[-1,-1,-1],"type":"VEC3"},{"bufferView":0,"byteOffset":150912,"componentType":5125,"count":1440,"type":"SCALAR"},{"bufferView":1,"byteOffset":181968,"componentType":5126,"count":242,"max":[0.4830000102519989,0.4830000102519989,0.4830000102519989],"min":[-0.4830000102519989,-0.4830000102519989,-0.4830000102519989],"type":"VEC3"},{"bufferView":1,"byteOffset":184872,"componentType":5126,"count":242,"max":[1,1,1],"min":[-1,-1,-1],"type":"VEC3"},{"bufferView":0,"byteOffset":156672,"componentType":5125,"count":1440,"type":"SCALAR"},{"bufferView":1,"byteOffset":187776,"componentType":5126,"count":242,"max":[0.4830000102519989,0.4830000102519989,0.4830000102519989],"min":[-0.4830000102519989,-0.4830000102519989,-0.4830000102519989],"type":"VEC3"},{"bufferView":1,"byteOffset":190680,"componentType":5126,"count":242,"max":[1,1,1],"min":[-1,-1,-1],"type":"VEC3"},{"bufferView":0,"byteOffset":162432,"componentType":5125,"count":1440,"type":"SCALAR"},{"bufferView":1,"byteOffset":193584,"componentType":5126,"count":242,"max":[0.4830000102519989,0.4830000102519989,0.4830000102519989],"min":[-0.4830000102519989,-0.4830000102519989,-0.4830000102519989],"type":"VEC3"},{"bufferView":1,"byteOffset":196488,"componentType":5126,"count":242,"max":[1,1,1],"min":[-1,-1,-1],"type":"VEC3"},{"bufferView":0,"byteOffset":168192,"componentType":5125,"count":1440,"type":"SCALAR"},{"bufferView":1,"byteOffset":199392,"componentType":5126,"count":242,"max":[0.527999997138977,0.527999997138977,0.527999997138977],"min":[-0.527999997138977,-0.527999997138977,-0.527999997138977],"type":"VEC3"},{"bufferView":1,"byteOffset":202296,"componentType":5126,"count":242,"max":[1,1,1],"min":[-1,-1,-1],"type":"VEC3"},{"bufferView":0,"byteOffset":173952,"componentType":5125,"count":1440,"type":"SCALAR"},{"bufferView":1,"byteOffset":205200,"componentType":5126,"count":242,"max":[0.527999997138977,0.527999997138977,0.527999997138977],"min":[-0.527999997138977,-0.527999997138977,-0.527999997138977],"type":"VEC3"},{"bufferView":1,"byteOffset":208104,"componentType":5126,"count":242,"max":[1,1,1],"min":[-1,-1,-1],"type":"VEC3"},{"bufferView":0,"byteOffset":179712,"componentType":5125,"count":1440,"type":"SCALAR"},{"bufferView":1,"byteOffset":211008,"componentType":5126,"count":242,"max":[0.527999997138977,0.527999997138977,0.527999997138977],"min":[-0.527999997138977,-0.527999997138977,-0.527999997138977],"type":"VEC3"},{"bufferView":1,"byteOffset":213912,"componentType":5126,"count":242,"max":[1,1,1],"min":[-1,-1,-1],"type":"VEC3"},{"bufferView":0,"byteOffset":185472,"componentType":5125,"count":1440,"type":"SCALAR"},{"bufferView":1,"byteOffset":216816,"componentType":5126,"count":242,"max":[0.4830000102519989,0.4830000102519989,0.4830000102519989],"min":[-0.4830000102519989,-0.4830000102519989,-0.4830000102519989],"type":"VEC3"},{"bufferView":1,"byteOffset":219720,"componentType":5126,"count":242,"max":[1,1,1],"min":[-1,-1,-1],"type":"VEC3"},{"bufferView":0,"byteOffset":191232,"componentType":5125,"count":1440,"type":"SCALAR"},{"bufferView":1,"byteOffset":222624,"componentType":5126,"count":242,"max":[0.4830000102519989,0.4830000102519989,0.4830000102519989],"min":[-0.4830000102519989,-0.4830000102519989,-0.4830000102519989],"type":"VEC3"},{"bufferView":1,"byteOffset":225528,"componentType":5126,"count":242,"max":[1,1,1],"min":[-1,-1,-1],"type":"VEC3"},{"bufferView":0,"byteOffset":196992,"componentType":5125,"count":1440,"type":"SCALAR"},{"bufferView":1,"byteOffset":228432,"componentType":5126,"count":242,"max":[0.4830000102519989,0.4830000102519989,0.4830000102519989],"min":[-0.4830000102519989,-0.4830000102519989,-0.4830000102519989],"type":"VEC3"},{"bufferView":1,"byteOffset":231336,"componentType":5126,"count":242,"max":[1,1,1],"min":[-1,-1,-1],"type":"VEC3"},{"bufferView":0,"byteOffset":202752,"componentType":5125,"count":1440,"type":"SCALAR"},{"bufferView":1,"byteOffset":234240,"componentType":5126,"count":242,"max":[0.4830000102519989,0.4830000102519989,0.4830000102519989],"min":[-0.4830000102519989,-0.4830000102519989,-0.4830000102519989],"type":"VEC3"},{"bufferView":1,"byteOffset":237144,"componentType":5126,"count":242,"max":[1,1,1],"min":[-1,-1,-1],"type":"VEC3"},{"bufferView":0,"byteOffset":208512,"componentType":5125,"count":1440,"type":"SCALAR"},{"bufferView":1,"byteOffset":240048,"componentType":5126,"count":242,"max":[0.4830000102519989,0.4830000102519989,0.4830000102519989],"min":[-0.4830000102519989,-0.4830000102519989,-0.4830000102519989],"type":"VEC3"},{"bufferView":1,"byteOffset":242952,"componentType":5126,"count":242,"max":[1,1,1],"min":[-1,-1,-1],"type":"VEC3"},{"bufferView":0,"byteOffset":214272,"componentType":5125,"count":1440,"type":"SCALAR"},{"bufferView":1,"byteOffset":245856,"componentType":5126,"count":242,"max":[0.4830000102519989,0.4830000102519989,0.4830000102519989],"min":[-0.4830000102519989,-0.4830000102519989,-0.4830000102519989],"type":"VEC3"},{"bufferView":1,"byteOffset":248760,"componentType":5126,"count":242,"max":[1,1,1],"min":[-1,-1,-1],"type":"VEC3"},{"bufferView":0,"byteOffset":220032,"componentType":5125,"count":1440,"type":"SCALAR"},{"bufferView":1,"byteOffset":251664,"componentType":5126,"count":242,"max":[0.4830000102519989,0.4830000102519989,0.4830000102519989],"min":[-0.4830000102519989,-0.4830000102519989,-0.4830000102519989],"type":"VEC3"},{"bufferView":1,"byteOffset":254568,"componentType":5126,"count":242,"max":[1,1,1],"min":[-1,-1,-1],"type":"VEC3"},{"bufferView":0,"byteOffset":225792,"componentType":5125,"count":1440,"type":"SCALAR"},{"bufferView":1,"byteOffset":257472,"componentType":5126,"count":242,"max":[0.4830000102519989,0.4830000102519989,0.4830000102519989],"min":[-0.4830000102519989,-0.4830000102519989,-0.4830000102519989],"type":"VEC3"},{"bufferView":1,"byteOffset":260376,"componentType":5126,"count":242,"max":[1,1,1],"min":[-1,-1,-1],"type":"VEC3"},{"bufferView":0,"byteOffset":231552,"componentType":5125,"count":1440,"type":"SCALAR"},{"bufferView":1,"byteOffset":263280,"componentType":5126,"count":242,"max":[0.527999997138977,0.527999997138977,0.527999997138977],"min":[-0.527999997138977,-0.527999997138977,-0.527999997138977],"type":"VEC3"},{"bufferView":1,"byteOffset":266184,"componentType":5126,"count":242,"max":[1,1,1],"min":[-1,-1,-1],"type":"VEC3"},{"bufferView":0,"byteOffset":237312,"componentType":5125,"count":1440,"type":"SCALAR"},{"bufferView":1,"byteOffset":269088,"componentType":5126,"count":242,"max":[0.527999997138977,0.527999997138977,0.527999997138977],"min":[-0.527999997138977,-0.527999997138977,-0.527999997138977],"type":"VEC3"},{"bufferView":1,"byteOffset":271992,"componentType":5126,"count":242,"max":[1,1,1],"min":[-1,-1,-1],"type":"VEC3"},{"bufferView":0,"byteOffset":243072,"componentType":5125,"count":1440,"type":"SCALAR"},{"bufferView":1,"byteOffset":274896,"componentType":5126,"count":242,"max":[0.4830000102519989,0.4830000102519989,0.4830000102519989],"min":[-0.4830000102519989,-0.4830000102519989,-0.4830000102519989],"type":"VEC3"},{"bufferView":1,"byteOffset":277800,"componentType":5126,"count":242,"max":[1,1,1],"min":[-1,-1,-1],"type":"VEC3"},{"bufferView":0,"byteOffset":248832,"componentType":5125,"count":1440,"type":"SCALAR"},{"bufferView":1,"byteOffset":280704,"componentType":5126,"count":242,"max":[0.4830000102519989,0.4830000102519989,0.4830000102519989],"min":[-0.4830000102519989,-0.4830000102519989,-0.4830000102519989],"type":"VEC3"},{"bufferView":1,"byteOffset":283608,"componentType":5126,"count":242,"max":[1,1,1],"min":[-1,-1,-1],"type":"VEC3"},{"bufferView":0,"byteOffset":254592,"componentType":5125,"count":1440,"type":"SCALAR"},{"bufferView":1,"byteOffset":286512,"componentType":5126,"count":242,"max":[0.4830000102519989,0.4830000102519989,0.4830000102519989],"min":[-0.4830000102519989,-0.4830000102519989,-0.4830000102519989],"type":"VEC3"},{"bufferView":1,"byteOffset":289416,"componentType":5126,"count":242,"max":[1,1,1],"min":[-1,-1,-1],"type":"VEC3"},{"bufferView":0,"byteOffset":260352,"componentType":5125,"count":1440,"type":"SCALAR"},{"bufferView":1,"byteOffset":292320,"componentType":5126,"count":242,"max":[0.4830000102519989,0.4830000102519989,0.4830000102519989],"min":[-0.4830000102519989,-0.4830000102519989,-0.4830000102519989],"type":"VEC3"},{"bufferView":1,"byteOffset":295224,"componentType":5126,"count":242,"max":[1,1,1],"min":[-1,-1,-1],"type":"VEC3"},{"bufferView":0,"byteOffset":266112,"componentType":5125,"count":1440,"type":"SCALAR"},{"bufferView":1,"byteOffset":298128,"componentType":5126,"count":242,"max":[0.4830000102519989,0.4830000102519989,0.4830000102519989],"min":[-0.4830000102519989,-0.4830000102519989,-0.4830000102519989],"type":"VEC3"},{"bufferView":1,"byteOffset":301032,"componentType":5126,"count":242,"max":[1,1,1],"min":[-1,-1,-1],"type":"VEC3"},{"bufferView":0,"byteOffset":271872,"componentType":5125,"count":1440,"type":"SCALAR"},{"bufferView":1,"byteOffset":303936,"componentType":5126,"count":242,"max":[0.4830000102519989,0.4830000102519989,0.4830000102519989],"min":[-0.4830000102519989,-0.4830000102519989,-0.4830000102519989],"type":"VEC3"},{"bufferView":1,"byteOffset":306840,"componentType":5126,"count":242,"max":[1,1,1],"min":[-1,-1,-1],"type":"VEC3"},{"bufferView":0,"byteOffset":277632,"componentType":5125,"count":1440,"type":"SCALAR"},{"bufferView":1,"byteOffset":309744,"componentType":5126,"count":242,"max":[0.4830000102519989,0.4830000102519989,0.4830000102519989],"min":[-0.4830000102519989,-0.4830000102519989,-0.4830000102519989],"type":"VEC3"},{"bufferView":1,"byteOffset":312648,"componentType":5126,"count":242,"max":[1,1,1],"min":[-1,-1,-1],"type":"VEC3"},{"bufferView":0,"byteOffset":283392,"componentType":5125,"count":1440,"type":"SCALAR"},{"bufferView":1,"byteOffset":315552,"componentType":5126,"count":242,"max":[0.4830000102519989,0.4830000102519989,0.4830000102519989],"min":[-0.4830000102519989,-0.4830000102519989,-0.4830000102519989],"type":"VEC3"},{"bufferView":1,"byteOffset":318456,"componentType":5126,"count":242,"max":[1,1,1],"min":[-1,-1,-1],"type":"VEC3"},{"bufferView":0,"byteOffset":289152,"componentType":5125,"count":1440,"type":"SCALAR"},{"bufferView":1,"byteOffset":321360,"componentType":5126,"count":242,"max":[0.527999997138977,0.527999997138977,0.527999997138977],"min":[-0.527999997138977,-0.527999997138977,-0.527999997138977],"type":"VEC3"},{"bufferView":1,"byteOffset":324264,"componentType":5126,"count":242,"max":[1,1,1],"min":[-1,-1,-1],"type":"VEC3"},{"bufferView":0,"byteOffset":294912,"componentType":5125,"count":1440,"type":"SCALAR"}],"asset":{"extras":{"author":"NanoModels (https://sketchfab.com/NanoModels)","license":"CC-BY-4.0 (http://creativecommons.org/licenses/by/4.0/)","source":"https://sketchfab.com/3d-models/graphene-14ff4c51d42743f88b69efed79f373b1","title":"Graphene"},"generator":"Sketchfab-12.68.0","version":"2.0"},"bufferViews":[{"buffer":0,"byteLength":300672,"name":"floatBufferViews","target":34963},{"buffer":0,"byteLength":327168,"byteOffset":300672,"byteStride":12,"name":"floatBufferViews","target":34962}],"buffers":[{"byteLength":627840,"uri":"data:application/octet-stream;base64,"}],"materials":[{"doubleSided":true,"name":"Shape","pbrMetallicRoughness":{"baseColorFactor":[0.565,0.565,0.565,1],"roughnessFactor":0}}],"meshes":[{"name":"Object_0","primitives":[{"attributes":{"NORMAL":1,"POSITION":0},"indices":2,"material":0,"mode":4}]},{"name":"Object_1","primitives":[{"attributes":{"NORMAL":4,"POSITION":3},"indices":5,"material":0,"mode":4}]},{"name":"Object_2","primitives":[{"attributes":{"NORMAL":7,"POSITION":6},"indices":8,"material":0,"mode":4}]},{"name":"Object_3","primitives":[{"attributes":{"NORMAL":10,"POSITION":9},"indices":11,"material":0,"mode":4}]},{"name":"Object_4","primitives":[{"attributes":{"NORMAL":13,"POSITION":12},"indices":14,"material":0,"mode":4}]},{"name":"Object_5","primitives":[{"attributes":{"NORMAL":16,"POSITION":15},"indices":17,"material":0,"mode":4}]},{"name":"Object_6","primitives":[{"attributes":{"NORMAL":19,"POSITION":18},"indices":20,"material":0,"mode":4}]},{"name":"Object_7","primitives":[{"attributes":{"NORMAL":22,"POSITION":21},"indices":23,"material":0,"mode":4}]},{"name":"Object_8","primitives":[{"attributes":{"NORMAL":25,"POSITION":24},"indices":26,"material":0,"mode":4}]},{"name":"Object_9","primitives":[{"attributes":{"NORMAL":28,"POSITION":27},"indices":29,"material":0,"mode":4}]},{"name":"Object_10","primitives":[{"attributes":{"NORMAL":31,"POSITION":30},"indices":32,"material":0,"mode":4}]},{"name":"Object_11","primitives":[{"attributes":{"NORMAL":34,"POSITION":33},"indices":35,"material":0,"mode":4}]},{"name":"Object_12","primitives":[{"attributes":{"NORMAL":37,"POSITION":36},"indices":38,"material":0,"mode":4}]},{"name":"Object_13","primitives":[{"attributes":{"NORMAL":40,"POSITION":39},"indices":41,"material":0,"mode":4}]},{"name":"Object_14","primitives":[{"attributes":{"NORMAL":43,"POSITION":42},"indices":44,"material":0,"mode":4}]},{"name":"Object_15","primitives":[{"attributes":{"NORMAL":46,"POSITION":45},"indices":47,"material":0,"mode":4}]},{"name":"Object_16","primitives":[{"attributes":{"NORMAL":49,"POSITION":48},"indices":50,"material":0,"mode":4}]},{"name":"Object_17","primitives":[{"attributes":{"NORMAL":52,"POSITION":51},"indices":53,"material":0,"mode":4}]},{"name":"Object_18","primitives":[{"attributes":{"NORMAL":55,"POSITION":54},"indices":56,"material":0,"mode":4}]},{"name":"Object_19","primitives":[{"attributes":{"NORMAL":58,"POSITION":57},"indices":59,"material":0,"mode":4}]},{"name":"Object_20","primitives":[{"attributes":{"NORMAL":61,"POSITION":60},"indices":62,"material":0,"mode":4}]},{"name":"Object_21","primitives":[{"attributes":{"NORMAL":64,"POSITION":63},"indices":65,"material":0,"mode":4}]},{"name":"Object_22","primitives":[{"attributes":{"NORMAL":67,"POSITION":66},"indices":68,"material":0,"mode":4}]},{"name":"Object_23","primitives":[{"attributes":{"NORMAL":70,"POSITION":69},"indices":71,"material":0,"mode":4}]},{"name":"Object_24","primitives":[{"attributes":{"NORMAL":73,"POSITION":72},"indices":74,"material":0,"mode":4}]},{"name":"Object_25","primitives":[{"attributes":{"NORMAL":76,"POSITION":75},"indices":77,"material":0,"mode":4}]},{"name":"Object_26","primitives":[{"attributes":{"NORMAL":79,"POSITION":78},"indices":80,"material":0,"mode":4}]},{"name":"Object_27","primitives":[{"attributes":{"NORMAL":82,"POSITION":81},"indices":83,"material":0,"mode":4}]},{"name":"Object_28","primitives":[{"attributes":{"NORMAL":85,"POSITION":84},"indices":86,"material":0,"mode":4}]},{"name":"Object_29","primitives":[{"attributes":{"NORMAL":88,"POSITION":87},"indices":89,"material":0,"mode":4}]},{"name":"Object_30","primitives":[{"attributes":{"NORMAL":91,"POSITION":90},"indices":92,"material":0,"mode":4}]},{"name":"Object_31","primitives":[{"attributes":{"NORMAL":94,"POSITION":93},"indices":95,"material":0,"mode":4}]},{"name":"Object_32","primitives":[{"attributes":{"NORMAL":97,"POSITION":96},"indices":98,"material":0,"mode":4}]},{"name":"Object_33","primitives":[{"attributes":{"NORMAL":100,"POSITION":99},"indices":101,"material":0,"mode":4}]},{"name":"Object_34","primitives":[{"attributes":{"NORMAL":103,"POSITION":102},"indices":104,"material":0,"mode":4}]},{"name":"Object_35","primitives":[{"attributes":{"NORMAL":106,"POSITION":105},"indices":107,"material":0,"mode":4}]},{"name":"Object_36","primitives":[{"attributes":{"NORMAL":109,"POSITION":108},"indices":110,"material":0,"mode":4}]},{"name":"Object_37","primitives":[{"attributes":{"NORMAL":112,"POSITION":111},"indices":113,"material":0,"mode":4}]},{"name":"Object_38","primitives":[{"attributes":{"NORMAL":115,"POSITION":114},"indices":116,"material":0,"mode":4}]},{"name":"Object_39","primitives":[{"attributes":{"NORMAL":118,"POSITION":117},"indices":119,"material":0,"mode":4}]},{"name":"Object_40","primitives":[{"attributes":{"NORMAL":121,"POSITION":120},"indices":122,"material":0,"mode":4}]},{"name":"Object_41","primitives":[{"attributes":{"NORMAL":124,"POSITION":123},"indices":125,"material":0,"mode":4}]},{"name":"Object_42","primitives":[{"attributes":{"NORMAL":127,"POSITION":126},"indices":128,"material":0,"mode":4}]},{"name":"Object_43","primitives":[{"attributes":{"NORMAL":130,"POSITION":129},"indices":131,"material":0,"mode":4}]},{"name":"Object_44","primitives":[{"attributes":{"NORMAL":133,"POSITION":132},"indices":134,"material":0,"mode":4}]},{"name":"Object_45","primitives":[{"attributes":{"NORMAL":136,"POSITION":135},"indices":137,"material":0,"mode":4}]},{"name":"Object_46","primitives":[{"attributes":{"NORMAL":139,"POSITION":138},"indices":140,"material":0,"mode":4}]},{"name":"Object_47","primitives":[{"attributes":{"NORMAL":142,"POSITION":141},"indices":143,"material":0,"mode":4}]},{"name":"Object_48","primitives":[{"attributes":{"NORMAL":145,"POSITION":144},"indices":146,"material":0,"mode":4}]},{"name":"Object_49","primitives":[{"attributes":{"NORMAL":148,"POSITION":147},"indices":149,"material":0,"mode":4}]},{"name":"Object_50","primitives":[{"attributes":{"NORMAL":151,"POSITION":150},"indices":152,"material":0,"mode":4}]},{"name":"Object_51","primitives":[{"attributes":{"NORMAL":154,"POSITION":153},"indices":155,"material":0,"mode":4}]},{"name":"Object_52","primitives":[{"attributes":{"NORMAL":157,"POSITION":156},"indices":158,"material":0,"mode":4}]},{"name":"Object_53","primitives":[{"attributes":{"NORMAL":160,"POSITION":159},"indices":161,"material":0,"mode":4}]},{"name":"Object_54","primitives":[{"attributes":{"NORMAL":163,"POSITION":162},"indices":164,"material":0,"mode":4}]},{"name":"Object_55","primitives":[{"attributes":{"NORMAL":166,"POSITION":165},"indices":167,"material":0,"mode":4}]},{"name":"Object_56","primitives":[{"attributes":{"NORMAL":169,"POSITION":168},"indices":170,"material":0,"mode":4}]},{"name":"Object_57","primitives":[{"attributes":{"NORMAL":172,"POSITION":171},"indices":173,"material":0,"mode":4}]},{"name":"Object_58","primitives":[{"attributes":{"NORMAL":175,"POSITION":174},"indices":176,"material":0,"mode":4}]},{"name":"Object_59","primitives":[{"attributes":{"NORMAL":178,"POSITION":177},"indices":179,"material":0,"mode":4}]},{"name":"Object_60","primitives":[{"attributes":{"NORMAL":181,"POSITION":180},"indices":182,"material":0,"mode":4}]},{"name":"Object_61","primitives":[{"attributes":{"NORMAL":184,"POSITION":183},"indices":185,"material":0,"mode":4}]},{"name":"Object_62","primitives":[{"attributes":{"NORMAL":187,"POSITION":186},"indices":188,"material":0,"mode":4}]},{"name":"Object_63","primitives":[{"attributes":{"NORMAL":190,"POSITION":189},"indices":191,"material":0,"mode":4}]},{"name":"Object_64","primitives":[{"attributes":{"NORMAL":193,"POSITION":192},"indices":194,"material":0,"mode":4}]},{"name":"Object_65","primitives":[{"attributes":{"NORMAL":196,"POSITION":195},"indices":197,"material":0,"mode":4}]},{"name":"Object_66","primitives":[{"attributes":{"NORMAL":199,"POSITION":198},"indices":200,"material":0,"mode":4}]},{"name":"Object_67","primitives":[{"attributes":{"NORMAL":202,"POSITION":201},"indices":203,"material":0,"mode":4}]},{"name":"Object_68","primitives":[{"attributes":{"NORMAL":205,"POSITION":204},"indices":206,"material":0,"mode":4}]},{"name":"Object_69","primitives":[{"attributes":{"NORMAL":208,"POSITION":207},"indices":209,"material":0,"mode":4}]},{"name":"Object_70","primitives":[{"attributes":{"NORMAL":211,"POSITION":210},"indices":212,"material":0,"mode":4}]},{"name":"Object_71","primitives":[{"attributes":{"NORMAL":214,"POSITION":213},"indices":215,"material":0,"mode":4}]},{"name":"Object_72","primitives":[{"attributes":{"NORMAL":217,"POSITION":216},"indices":218,"material":0,"mode":4}]},{"name":"Object_73","primitives":[{"attributes":{"NORMAL":220,"POSITION":219},"indices":221,"material":0,"mode":4}]},{"name":"Object_74","primitives":[{"attributes":{"NORMAL":223,"POSITION":222},"indices":224,"material":0,"mode":4}]},{"name":"Object_75","primitives":[{"attributes":{"NORMAL":226,"POSITION":225},"indices":227,"material":0,"mode":4}]},{"name":"Object_76","primitives":[{"attributes":{"NORMAL":229,"POSITION":228},"indices":230,"material":0,"mode":4}]},{"name":"Object_77","primitives":[{"attributes":{"NORMAL":232,"POSITION":231},"indices":233,"material":0,"mode":4}]},{"name":"Object_78","primitives":[{"attributes":{"NORMAL":235,"POSITION":234},"indices":236,"material":0,"mode":4}]},{"name":"Object_79","primitives":[{"attributes":{"NORMAL":238,"POSITION":237},"indices":239,"material":0,"mode":4}]},{"name":"Object_80","primitives":[{"attributes":{"NORMAL":241,"POSITION":240},"indices":242,"material":0,"mode":4}]},{"name":"Object_81","primitives":[{"attributes":{"NORMAL":244,"POSITION":243},"indices":245,"material":0,"mode":4}]},{"name":"Object_82","primitives":[{"attributes":{"NORMAL":247,"POSITION":246},"indices":248,"material":0,"mode":4}]},{"name":"Object_83","primitives":[{"attributes":{"NORMAL":250,"POSITION":249},"indices":251,"material":0,"mode":4}]},{"name":"Object_84","primitives":[{"attributes":{"NORMAL":253,"POSITION":252},"indices":254,"material":0,"mode":4}]},{"name":"Object_85","primitives":[{"attributes":{"NORMAL":256,"POSITION":255},"indices":257,"material":0,"mode":4}]},{"name":"Object_86","primitives":[{"attributes":{"NORMAL":259,"POSITION":258},"indices":260,"material":0,"mode":4}]},{"name":"Object_87","primitives":[{"attributes":{"NORMAL":262,"POSITION":261},"indices":263,"material":0,"mode":4}]},{"name":"Object_88","primitives":[{"attributes":{"NORMAL":265,"POSITION":264},"indices":266,"material":0,"mode":4}]},{"name":"Object_89","primitives":[{"attributes":{"NORMAL":268,"POSITION":267},"indices":269,"material":0,"mode":4}]},{"name":"Object_90","primitives":[{"attributes":{"NORMAL":271,"POSITION":270},"indices":272,"material":0,"mode":4}]},{"name":"Object_91","primitives":[{"attributes":{"NORMAL":274,"POSITION":273},"indices":275,"material":0,"mode":4}]},{"name":"Object_92","primitives":[{"attributes":{"NORMAL":277,"POSITION":276},"indices":278,"material":0,"mode":4}]},{"name":"Object_93","primitives":[{"attributes":{"NORMAL":280,"POSITION":279},"indices":281,"material":0,"mode":4}]},{"name":"Object_94","primitives":[{"attributes":{"NORMAL":283,"POSITION":282},"indices":284,"material":0,"mode":4}]},{"name":"Object_95","primitives":[{"attributes":{"NORMAL":286,"POSITION":285},"indices":287,"material":0,"mode":4}]},{"name":"Object_96","primitives":[{"attributes":{"NORMAL":289,"POSITION":288},"indices":290,"material":0,"mode":4}]},{"name":"Object_97","primitives":[{"attributes":{"NORMAL":292,"POSITION":291},"indices":293,"material":0,"mode":4}]},{"name":"Object_98","primitives":[{"attributes":{"NORMAL":295,"POSITION":294},"indices":296,"material":0,"mode":4}]},{"name":"Object_99","primitives":[{"attributes":{"NORMAL":298,"POSITION":297},"indices":299,"material":0,"mode":4}]},{"name":"Object_100","primitives":[{"attributes":{"NORMAL":301,"POSITION":300},"indices":302,"material":0,"mode":4}]},{"name":"Object_101","primitives":[{"attributes":{"NORMAL":304,"POSITION":303},"indices":305,"material":0,"mode":4}]},{"name":"Object_102","primitives":[{"attributes":{"NORMAL":307,"POSITION":306},"indices":308,"material":0,"mode":4}]},{"name":"Object_103","primitives":[{"attributes":{"NORMAL":310,"POSITION":309},"indices":311,"material":0,"mode":4}]},{"name":"Object_104","primitives":[{"attributes":{"NORMAL":313,"POSITION":312},"indices":314,"material":0,"mode":4}]},{"name":"Object_105","primitives":[{"attributes":{"NORMAL":316,"POSITION":315},"indices":317,"material":0,"mode":4}]},{"name":"Object_106","primitives":[{"attributes":{"NORMAL":319,"POSITION":318},"indices":320,"material":0,"mode":4}]},{"name":"Object_107","primitives":[{"attributes":{"NORMAL":322,"POSITION":321},"indices":323,"material":0,"mode":4}]},{"name":"Object_108","primitives":[{"attributes":{"NORMAL":325,"POSITION":324},"indices":326,"material":0,"mode":4}]},{"name":"Object_109","primitives":[{"attributes":{"NORMAL":328,"POSITION":327},"indices":329,"material":0,"mode":4}]},{"name":"Object_110","primitives":[{"attributes":{"NORMAL":331,"POSITION":330},"indices":332,"material":0,"mode":4}]}],"nodes":[{"children":[1],"matrix":[1,0,0,0,0,2.220446049250313e-16,-1,0,0,1,2.220446049250313e-16,0,0,0,0,1],"name":"Sketchfab_model"},{"children":[2],"name":"root"},{"children":[3,5,7,9,11,13,15,17,19,21,23,25,27,29,31,33,35,37,39,41,43,45,47,49,51,53,55,57,59,61,63,65,67,69,71,73,75,77,79,81,83,85,87,89,91,93,95,97,99,101,103,105,107,109,111,113,115,117,119,121,123,125,127,129,131,133,135,137,139,141,143,145,147,149,151,153,155,157,159,161,163,165,167,169,171,173,175,177,179,181,183,185,187,189,191,193,195,197,199,201,203,205,207,209,211,213,215,217,219,221,223],"matrix":[1,0,0,0,0,2.220446049250313e-16,1,0,0,-1,2.220446049250313e-16,0,0,0,0,1],"name":"GLTF_SceneRootNode"},{"children":[4],"matrix":[0.0000034560337980327205,-4.277518857176421e-8,0.9999999999940271,0,0.04912191260573418,0.9987927901731862,-1.2704344025393777e-7,0,-0.9987927901672152,0.04912191260587984,0.000003453962839183866,0,2.8013360500335693,-0.042160749435424805,6.84780740737915,1],"name":"Shape_Cylinder.062_0"},{"mesh":0,"name":"Object_4"},{"children":[6],"matrix":[0.0000034560337980327205,-4.277518857176421e-8,0.9999999999940271,0,0.04912191260573418,0.9987927901731862,-1.2704344025393777e-7,0,-0.9987927901672152,0.04912191260587984,0.000003453962839183866,0,2.8013360500335693,-0.042160749435424805,4.387807369232178,1],"name":"Shape_Cylinder.061_1"},{"mesh":1,"name":"Object_6"},{"children":[8],"matrix":[0.8660386456918238,0,-0.49997706364219524,0,0,1,0,0,0.49997706364219524,0,0.8660386456918238,0,3.853745698928833,-0.042160749435424805,4.98065710067749,1],"name":"Shape_Cylinder.060_2"},{"mesh":2,"name":"Object_8"},{"children":[10],"matrix":[-0.8660372865695178,0,-0.4999794178476814,0,0,1,0,0,0.4999794178476814,0,-0.8660372865695178,0,3.8665354251861572,-0.042160749435424805,6.23280668258667,1],"name":"Shape_Cylinder.059_3"},{"mesh":3,"name":"Object_10"},{"children":[12],"matrix":[0.0000034560337980327205,-4.277518857176421e-8,0.9999999999940271,0,0.04912191260573418,0.9987927901731862,-1.2704344025393777e-7,0,-0.9987927901672152,0.04912191260587984,0.000003453962839183866,0,2.8013360500335693,-0.0421605110168457,1.9278072118759155,1],"name":"Shape_Cylinder.058_4"},{"mesh":4,"name":"Object_12"},{"children":[14],"matrix":[0.8660386456918238,0,-0.49997706364219524,0,0,1,0,0,0.49997706364219524,0,0.8660386456918238,0,3.853745698928833,-0.042160749435424805,2.5206573009490967,1],"name":"Shape_Cylinder.057_5"},{"mesh":5,"name":"Object_14"},{"children":[16],"matrix":[-0.8660377779919273,0,-0.4999785666314159,0,0,1,0,0,0.4999785666314159,0,-0.8660377779919273,0,3.853745698928833,-0.042160749435424805,3.794957399368286,1],"name":"Shape_Cylinder.056_6"},{"mesh":6,"name":"Object_16"},{"children":[18],"matrix":[0.8660386456918238,0,-0.49997706364219524,0,0,1,0,0,0.49997706364219524,0,0.8660386456918238,0,-0.39436396956443787,-0.0421605110168457,-2.377192735671997,1],"name":"Shape_Cylinder.055_7"},{"mesh":7,"name":"Object_18"},{"children":[20],"matrix":[0.0000034560337980327205,-4.277518857176421e-8,0.9999999999940271,0,0.04912191260573418,0.9987927901731862,-1.2704344025393777e-7,0,-0.9987927901672152,0.04912191260587984,0.000003453962839183866,0,0.6708357334136963,-0.0421605110168457,-1.7621928453445435,1],"name":"Shape_Cylinder.054_8"},{"mesh":8,"name":"Object_20"},{"children":[22],"matrix":[-0.8660372865695178,0,-0.4999794178476814,0,0,1,0,0,0.4999794178476814,0,-0.8660372865695178,0,-0.39436396956443787,-0.0421605110168457,-1.1471928358078003,1],"name":"Shape_Cylinder.053_9"},{"mesh":9,"name":"Object_22"},{"children":[24],"matrix":[0.8660085574290551,0,-0.5000291776083141,0,0,1,0,0,0.5000291776083141,0,0.8660085574290551,0,1.7360860109329224,-0.0421605110168457,-1.1471928358078003,1],"name":"Shape_Cylinder.052_10"},{"mesh":10,"name":"Object_24"},{"children":[26],"matrix":[0.0000034560337980327205,-4.277518857176421e-8,0.9999999999940271,0,0.04912191260573418,0.9987927901731862,-1.2704344025393777e-7,0,-0.9987927901672152,0.04912191260587984,0.000003453962839183866,0,2.8013360500335693,-0.0421605110168457,-0.5321928262710571,1],"name":"Shape_Cylinder.051_11"},{"mesh":11,"name":"Object_26"},{"children":[28],"matrix":[-0.8660074726901581,0,-0.5000310562803123,0,0,1,0,0,0.5000310562803123,0,-0.8660074726901581,0,1.7360860109329224,-0.0421605110168457,0.08280718326568604,1],"name":"Shape_Cylinder.050_12"},{"mesh":12,"name":"Object_28"},{"children":[30],"matrix":[0.8660386456918238,0,-0.49997706364219524,0,0,1,0,0,0.49997706364219524,0,0.8660386456918238,0,3.853745698928833,-0.0421605110168457,0.06065714359283447,1],"name":"Shape_Cylinder.049_13"},{"mesh":13,"name":"Object_30"},{"children":[32],"matrix":[-0.8660377779919273,0,-0.4999785666314159,0,0,1,0,0,0.4999785666314159,0,-0.8660377779919273,0,3.853745698928833,-0.0421605110168457,1.3349570035934448,1],"name":"Shape_Cylinder.048_14"},{"mesh":14,"name":"Object_32"},{"children":[34],"matrix":[0.8660386456918238,0,-0.49997706364219524,0,0,1,0,0,0.49997706364219524,0,0.8660386456918238,0,-4.642413139343262,-0.0421602725982666,-4.815042972564697,1],"name":"Shape_Cylinder.047_15"},{"mesh":15,"name":"Object_34"},{"children":[36],"matrix":[0.0000034560337980327205,-4.277518857176421e-8,0.9999999999940271,0,0.04912191260573418,0.9987927901731862,-1.2704344025393777e-7,0,-0.9987927901672152,0.04912191260587984,0.000003453962839183866,0,-3.5900137424468994,-0.0421600341796875,-4.222193241119385,1],"name":"Shape_Cylinder.046_16"},{"mesh":16,"name":"Object_36"},{"children":[38],"matrix":[-0.866038355770445,0,-0.49997756583113223,0,0,1,0,0,0.49997756583113223,0,-0.866038355770445,0,-4.642413139343262,-0.0421602725982666,-3.629342794418335,1],"name":"Shape_Cylinder.045_17"},{"mesh":17,"name":"Object_38"},{"children":[40],"matrix":[0.8660386456918238,0,-0.49997706364219524,0,0,1,0,0,0.49997706364219524,0,0.8660386456918238,0,-2.5248138904571533,-0.0421602725982666,-3.6071927547454834,1],"name":"Shape_Cylinder.044_18"},{"mesh":18,"name":"Object_40"},{"children":[42],"matrix":[0.0000034560337980327205,-4.277518857176421e-8,0.9999999999940271,0,0.04912191260573418,0.9987927901731862,-1.2704344025393777e-7,0,-0.9987927901672152,0.04912191260587984,0.000003453962839183866,0,-1.4595637321472168,-0.0421605110168457,-2.9921927452087402,1],"name":"Shape_Cylinder.043_19"},{"mesh":19,"name":"Object_42"},{"children":[44],"matrix":[-0.866038355770445,0,-0.49997756583113223,0,0,1,0,0,0.49997756583113223,0,-0.866038355770445,0,-2.5248138904571533,-0.0421605110168457,-2.377192735671997,1],"name":"Shape_Cylinder.042_20"},{"mesh":20,"name":"Object_44"},{"children":[46],"matrix":[0.8660085574290551,0,-0.5000291776083141,0,0,1,0,0,0.5000291776083141,0,0.8660085574290551,0,1.7488757371902466,-0.0421602725982666,-3.585042715072632,1],"name":"Shape_Cylinder.041_21"},{"mesh":21,"name":"Object_46"},{"children":[48],"matrix":[0.0000034560337980327205,-4.277518857176421e-8,0.9999999999940271,0,0.04912191260573418,0.9987927901731862,-1.2704344025393777e-7,0,-0.9987927901672152,0.04912191260587984,0.000003453962839183866,0,2.775766134262085,-0.0421605110168457,-2.9921927452087402,1],"name":"Shape_Cylinder.040_22"},{"mesh":22,"name":"Object_48"},{"children":[50],"matrix":[-0.8660074726901581,0,-0.5000310562803123,0,0,1,0,0,0.5000310562803123,0,-0.8660074726901581,0,1.7360860109329224,-0.0421605110168457,-2.377192735671997,1],"name":"Shape_Cylinder.039_23"},{"mesh":23,"name":"Object_50"},{"children":[52],"matrix":[0.8660386456918238,0,-0.49997706364219524,0,0,1,0,0,0.49997706364219524,0,0.8660386456918238,0,3.8665354251861572,-0.0421605110168457,-2.377192735671997,1],"name":"Shape_Cylinder.038_24"},{"mesh":24,"name":"Object_52"},{"children":[54],"matrix":[-0.8660377779919273,0,-0.4999785666314159,0,0,1,0,0,0.4999785666314159,0,-0.8660377779919273,0,3.853745698928833,-0.0421605110168457,-1.1250438690185547,1],"name":"Shape_Cylinder.037_25"},{"mesh":25,"name":"Object_54"},{"children":[56],"matrix":[0.0000034560337980327205,-4.277518857176421e-8,0.9999999999940271,0,0.04912191260573418,0.9987927901731862,-1.2704344025393777e-7,0,-0.9987927901672152,0.04912191260587984,0.000003453962839183866,0,-3.5900137424468994,-0.0421602725982666,-6.682192325592041,1],"name":"Shape_Cylinder.036_26"},{"mesh":26,"name":"Object_56"},{"children":[58],"matrix":[-0.866038355770445,0,-0.49997756583113223,0,0,1,0,0,0.49997756583113223,0,-0.866038355770445,0,-4.655113220214844,-0.0421602725982666,-6.067192554473877,1],"name":"Shape_Cylinder.035_27"},{"mesh":27,"name":"Object_58"},{"children":[60],"matrix":[0.8660386456918238,0,-0.49997706364219524,0,0,1,0,0,0.49997706364219524,0,0.8660386456918238,0,-2.5120136737823486,-0.0421602725982666,-6.045042514801025,1],"name":"Shape_Cylinder.034_28"},{"mesh":28,"name":"Object_60"},{"children":[62],"matrix":[0.0000034560337980327205,-4.277518857176421e-8,0.9999999999940271,0,0.04912191260573418,0.9987927901731862,-1.2704344025393777e-7,0,-0.9987927901672152,0.04912191260587984,0.000003453962839183866,0,-1.4851336479187012,-0.0421605110168457,-5.452192783355713,1],"name":"Shape_Cylinder.033_29"},{"mesh":29,"name":"Object_62"},{"children":[64],"matrix":[-0.866038355770445,0,-0.49997756583113223,0,0,1,0,0,0.49997756583113223,0,-0.866038355770445,0,-2.5248138904571533,-0.0421602725982666,-4.837193012237549,1],"name":"Shape_Cylinder.032_30"},{"mesh":30,"name":"Object_64"},{"children":[66],"matrix":[0.8660386456918238,0,-0.49997706364219524,0,0,1,0,0,0.49997706364219524,0,0.8660386456918238,0,-0.38157424330711365,-0.0421602725982666,-4.815042972564697,1],"name":"Shape_Cylinder.031_31"},{"mesh":31,"name":"Object_66"},{"children":[68],"matrix":[0.0000034560337980327205,-4.277518857176421e-8,0.9999999999940271,0,0.04912191260573418,0.9987927901731862,-1.2704344025393777e-7,0,-0.9987927901672152,0.04912191260587984,0.000003453962839183866,0,0.6452658176422119,-0.0421600341796875,-4.222193241119385,1],"name":"Shape_Cylinder.030_32"},{"mesh":32,"name":"Object_68"},{"children":[70],"matrix":[-0.8660372865695178,0,-0.4999794178476814,0,0,1,0,0,0.4999794178476814,0,-0.8660372865695178,0,-0.39436396956443787,-0.0421602725982666,-3.6071927547454834,1],"name":"Shape_Cylinder.029_33"},{"mesh":33,"name":"Object_70"},{"children":[72],"matrix":[0.8660386456918238,0,-0.49997706364219524,0,0,1,0,0,0.49997706364219524,0,0.8660386456918238,0,-4.655113220214844,-0.042160749435424805,2.5428073406219482,1],"name":"Shape_Cylinder.028_34"},{"mesh":34,"name":"Object_72"},{"children":[74],"matrix":[0.0000034560337980327205,-4.277518857176421e-8,0.9999999999940271,0,0.04912191260573418,0.9987927901731862,-1.2704344025393777e-7,0,-0.9987927901672152,0.04912191260587984,0.000003453962839183866,0,-3.56441330909729,-0.042160749435424805,3.1578071117401123,1],"name":"Shape_Cylinder.027_35"},{"mesh":35,"name":"Object_74"},{"children":[76],"matrix":[0.8660386456918238,0,-0.49997706364219524,0,0,1,0,0,0.49997706364219524,0,0.8660386456918238,0,-2.5375139713287354,-0.042160749435424805,3.750657320022583,1],"name":"Shape_Cylinder.026_36"},{"mesh":36,"name":"Object_76"},{"children":[78],"matrix":[0.0000034560337980327205,-4.277518857176421e-8,0.9999999999940271,0,0.04912191260573418,0.9987927901731862,-1.2704344025393777e-7,0,-0.9987927901672152,0.04912191260587984,0.000003453962839183866,0,-1.4339938163757324,-0.042160749435424805,4.387807369232178,1],"name":"Shape_Cylinder.025_37"},{"mesh":37,"name":"Object_78"},{"children":[80],"matrix":[0.8660386456918238,0,-0.49997706364219524,0,0,1,0,0,0.49997706364219524,0,0.8660386456918238,0,-0.4071536958217621,-0.042160749435424805,4.98065710067749,1],"name":"Shape_Cylinder.024_38"},{"mesh":38,"name":"Object_80"},{"children":[82],"matrix":[0.0000034560337980327205,-4.277518857176421e-8,0.9999999999940271,0,0.04912191260573418,0.9987927901731862,-1.2704344025393777e-7,0,-0.9987927901672152,0.04912191260587984,0.000003453962839183866,0,0.6964061260223389,-0.042160749435424805,5.617806911468506,1],"name":"Shape_Cylinder.023_39"},{"mesh":39,"name":"Object_82"},{"children":[84],"matrix":[0.8660085574290551,0,-0.5000291776083141,0,0,1,0,0,0.5000291776083141,0,0.8660085574290551,0,1.72329580783844,-0.042160749435424805,6.210656642913818,1],"name":"Shape_Cylinder.022_40"},{"mesh":40,"name":"Object_84"},{"children":[86],"matrix":[0.8660386456918238,0,-0.49997706364219524,0,0,1,0,0,0.49997706364219524,0,0.8660386456918238,0,-4.642413139343262,-0.0421605110168457,0.1049572229385376,1],"name":"Shape_Cylinder.021_41"},{"mesh":41,"name":"Object_86"},{"children":[88],"matrix":[0.0000034560337980327205,-4.277518857176421e-8,0.9999999999940271,0,0.04912191260573418,0.9987927901731862,-1.2704344025393777e-7,0,-0.9987927901672152,0.04912191260587984,0.000003453962839183866,0,-3.5900137424468994,-0.0421605110168457,0.6978071928024292,1],"name":"Shape_Cylinder.020_42"},{"mesh":42,"name":"Object_88"},{"children":[90],"matrix":[-0.866038355770445,0,-0.49997756583113223,0,0,1,0,0,0.49997756583113223,0,-0.866038355770445,0,-4.642413139343262,-0.0421605110168457,1.2906571626663208,1],"name":"Shape_Cylinder.019_43"},{"mesh":43,"name":"Object_90"},{"children":[92],"matrix":[0.8660386456918238,0,-0.49997706364219524,0,0,1,0,0,0.49997706364219524,0,0.8660386456918238,0,-2.5248138904571533,-0.0421605110168457,1.3128072023391724,1],"name":"Shape_Cylinder.018_44"},{"mesh":44,"name":"Object_92"},{"children":[94],"matrix":[0.0000034560337980327205,-4.277518857176421e-8,0.9999999999940271,0,0.04912191260573418,0.9987927901731862,-1.2704344025393777e-7,0,-0.9987927901672152,0.04912191260587984,0.000003453962839183866,0,-1.4595637321472168,-0.0421605110168457,1.9278072118759155,1],"name":"Shape_Cylinder.017_45"},{"mesh":45,"name":"Object_94"},{"children":[96],"matrix":[-0.866038355770445,0,-0.49997756583113223,0,0,1,0,0,0.49997756583113223,0,-0.866038355770445,0,-2.5248138904571533,-0.042160749435424805,2.5428073406219482,1],"name":"Shape_Cylinder.016_46"},{"mesh":46,"name":"Object_96"},{"children":[98],"matrix":[0.8660386456918238,0,-0.49997706364219524,0,0,1,0,0,0.49997706364219524,0,0.8660386456918238,0,-0.39436396956443787,-0.042160749435424805,2.5428073406219482,1],"name":"Shape_Cylinder.015_47"},{"mesh":47,"name":"Object_98"},{"children":[100],"matrix":[0.0000034560337980327205,-4.277518857176421e-8,0.9999999999940271,0,0.04912191260573418,0.9987927901731862,-1.2704344025393777e-7,0,-0.9987927901672152,0.04912191260587984,0.000003453962839183866,0,0.6708357334136963,-0.042160749435424805,3.1578071117401123,1],"name":"Shape_Cylinder.014_48"},{"mesh":48,"name":"Object_100"},{"children":[102],"matrix":[-0.8660372865695178,0,-0.4999794178476814,0,0,1,0,0,0.4999794178476814,0,-0.8660372865695178,0,-0.39436396956443787,-0.042160749435424805,3.7728073596954346,1],"name":"Shape_Cylinder.013_49"},{"mesh":49,"name":"Object_102"},{"children":[104],"matrix":[0.8660085574290551,0,-0.5000291776083141,0,0,1,0,0,0.5000291776083141,0,0.8660085574290551,0,1.7360860109329224,-0.042160749435424805,3.7728073596954346,1],"name":"Shape_Cylinder.012_50"},{"mesh":50,"name":"Object_104"},{"children":[106],"matrix":[-0.8660074726901581,0,-0.5000310562803123,0,0,1,0,0,0.5000310562803123,0,-0.8660074726901581,0,1.7360860109329224,-0.042160749435424805,5.002807140350342,1],"name":"Shape_Cylinder.011_51"},{"mesh":51,"name":"Object_106"},{"children":[108],"matrix":[0.8660386456918238,0,-0.49997706364219524,0,0,1,0,0,0.49997706364219524,0,0.8660386456918238,0,-4.642413139343262,-0.0421602725982666,-2.355043888092041,1],"name":"Shape_Cylinder.010_52"},{"mesh":52,"name":"Object_108"},{"children":[110],"matrix":[0.0000034560337980327205,-4.277518857176421e-8,0.9999999999940271,0,0.04912191260573418,0.9987927901731862,-1.2704344025393777e-7,0,-0.9987927901672152,0.04912191260587984,0.000003453962839183866,0,-3.5900137424468994,-0.0421605110168457,-1.7621928453445435,1],"name":"Shape_Cylinder.009_53"},{"mesh":53,"name":"Object_110"},{"children":[112],"matrix":[-0.866038355770445,0,-0.49997756583113223,0,0,1,0,0,0.49997756583113223,0,-0.866038355770445,0,-4.642413139343262,-0.0421605110168457,-1.1693419218063354,1],"name":"Shape_Cylinder.008_54"},{"mesh":54,"name":"Object_112"},{"children":[114],"matrix":[0.8660386456918238,0,-0.49997706364219524,0,0,1,0,0,0.49997706364219524,0,0.8660386456918238,0,-2.5248138904571533,-0.0421605110168457,-1.1471928358078003,1],"name":"Shape_Cylinder.007_55"},{"mesh":55,"name":"Object_114"},{"children":[116],"matrix":[0.0000034560337980327205,-4.277518857176421e-8,0.9999999999940271,0,0.04912191260573418,0.9987927901731862,-1.2704344025393777e-7,0,-0.9987927901672152,0.04912191260587984,0.000003453962839183866,0,-1.4595637321472168,-0.0421605110168457,-0.5321928262710571,1],"name":"Shape_Cylinder.006_56"},{"mesh":56,"name":"Object_116"},{"children":[118],"matrix":[-0.8660377779919273,0,-0.4999785666314159,0,0,1,0,0,0.4999785666314159,0,-0.8660377779919273,0,-2.5248138904571533,-0.0421605110168457,0.08280718326568604,1],"name":"Shape_Cylinder.005_57"},{"mesh":57,"name":"Object_118"},{"children":[120],"matrix":[0.8660386456918238,0,-0.49997706364219524,0,0,1,0,0,0.49997706364219524,0,0.8660386456918238,0,-0.39436396956443787,-0.0421605110168457,0.08280718326568604,1],"name":"Shape_Cylinder.004_58"},{"mesh":58,"name":"Object_120"},{"children":[122],"matrix":[0.0000034560337980327205,-4.277518857176421e-8,0.9999999999940271,0,0.04912191260573418,0.9987927901731862,-1.2704344025393777e-7,0,-0.9987927901672152,0.04912191260587984,0.000003453962839183866,0,0.6708357334136963,-0.0421605110168457,0.6978071928024292,1],"name":"Shape_Cylinder.003_59"},{"mesh":59,"name":"Object_122"},{"children":[124],"matrix":[-0.8660372865695178,0,-0.4999794178476814,0,0,1,0,0,0.4999794178476814,0,-0.8660372865695178,0,-0.39436396956443787,-0.0421605110168457,1.3128072023391724,1],"name":"Shape_Cylinder.002_60"},{"mesh":60,"name":"Object_124"},{"children":[126],"matrix":[0.8660085574290551,0,-0.5000291776083141,0,0,1,0,0,0.5000291776083141,0,0.8660085574290551,0,1.7360860109329224,-0.0421605110168457,1.3128072023391724,1],"name":"Shape_Cylinder.001_61"},{"mesh":61,"name":"Object_126"},{"children":[128],"matrix":[-0.8660074726901581,0,-0.5000310562803123,0,0,1,0,0,0.5000310562803123,0,-0.8660074726901581,0,1.7360860109329224,-0.042160749435424805,2.5428073406219482,1],"name":"Shape_Cylinder_62"},{"mesh":62,"name":"Object_128"},{"children":[130],"matrix":[-0.999999999999996,0,8.742277657347569e-8,0,0,1,0,0,-8.742277657347569e-8,0,-0.999999999999996,0,1.380985975265503,-0.0421605110168457,-1.7621928453445435,1],"name":"Shape_Sphere.047_63"},{"mesh":63,"name":"Object_130"},{"children":[132],"matrix":[-0.999999999999996,0,8.742277657347569e-8,0,0,1,0,0,-8.742277657347569e-8,0,-0.999999999999996,0,3.5114858150482178,-0.0421605110168457,-0.5321928262710571,1],"name":"Shape_Sphere.046_64"},{"mesh":64,"name":"Object_132"},{"children":[134],"matrix":[-0.999999999999996,0,8.742277657347569e-8,0,0,1,0,0,-8.742277657347569e-8,0,-0.999999999999996,0,4.221585273742676,-0.0421605110168457,-1.7621928453445435,1],"name":"Shape_Sphere.045_65"},{"mesh":65,"name":"Object_134"},{"children":[136],"matrix":[-0.999999999999996,0,8.742277657347569e-8,0,0,1,0,0,-8.742277657347569e-8,0,-0.999999999999996,0,-5.0102128982543945,-0.0421605110168457,-5.452192783355713,1],"name":"Shape_Sphere.044_66"},{"mesh":66,"name":"Object_136"},{"children":[138],"matrix":[-0.999999999999996,0,8.742277657347569e-8,0,0,1,0,0,-8.742277657347569e-8,0,-0.999999999999996,0,-4.300114154815674,-0.0421602725982666,-6.682192325592041,1],"name":"Shape_Sphere.043_67"},{"mesh":67,"name":"Object_138"},{"children":[140],"matrix":[-0.999999999999996,0,8.742277657347569e-8,0,0,1,0,0,-8.742277657347569e-8,0,-0.999999999999996,0,-2.8798134326934814,-0.0421600341796875,-4.222193241119385,1],"name":"Shape_Sphere.042_68"},{"mesh":68,"name":"Object_140"},{"children":[142],"matrix":[-0.999999999999996,0,8.742277657347569e-8,0,0,1,0,0,-8.742277657347569e-8,0,-0.999999999999996,0,-2.1697134971618652,-0.0421605110168457,-5.452192783355713,1],"name":"Shape_Sphere.041_69"},{"mesh":69,"name":"Object_142"},{"children":[144],"matrix":[-0.999999999999996,0,8.742277657347569e-8,0,0,1,0,0,-8.742277657347569e-8,0,-0.999999999999996,0,-0.7494139671325684,-0.0421605110168457,-2.9921927452087402,1],"name":"Shape_Sphere.040_70"},{"mesh":70,"name":"Object_144"},{"children":[146],"matrix":[-0.999999999999996,0,8.742277657347569e-8,0,0,1,0,0,-8.742277657347569e-8,0,-0.999999999999996,0,-0.03931388258934021,-0.0421600341796875,-4.222193241119385,1],"name":"Shape_Sphere.039_71"},{"mesh":71,"name":"Object_146"},{"children":[148],"matrix":[-0.999999999999996,0,8.742277657347569e-8,0,0,1,0,0,-8.742277657347569e-8,0,-0.999999999999996,0,2.0911858081817627,-0.0421605110168457,-2.9921927452087402,1],"name":"Shape_Sphere.038_72"},{"mesh":72,"name":"Object_148"},{"children":[150],"matrix":[-0.999999999999996,0,8.742277657347569e-8,0,0,1,0,0,-8.742277657347569e-8,0,-0.999999999999996,0,3.5114858150482178,-0.0421605110168457,-2.9921927452087402,1],"name":"Shape_Sphere.037_73"},{"mesh":73,"name":"Object_150"},{"children":[152],"matrix":[-0.999999999999996,0,8.742277657347569e-8,0,0,1,0,0,-8.742277657347569e-8,0,-0.999999999999996,0,-2.8798134326934814,-0.0421602725982666,-6.682192325592041,1],"name":"Shape_Sphere.036_74"},{"mesh":74,"name":"Object_152"},{"children":[154],"matrix":[-0.999999999999996,0,8.742277657347569e-8,0,0,1,0,0,-8.742277657347569e-8,0,-0.999999999999996,0,-0.7494139671325684,-0.0421605110168457,-5.452192783355713,1],"name":"Shape_Sphere.035_75"},{"mesh":75,"name":"Object_154"},{"children":[156],"matrix":[-0.999999999999996,0,8.742277657347569e-8,0,0,1,0,0,-8.742277657347569e-8,0,-0.999999999999996,0,1.380985975265503,-0.0421600341796875,-4.222193241119385,1],"name":"Shape_Sphere.034_76"},{"mesh":76,"name":"Object_156"},{"children":[158],"matrix":[-0.999999999999996,0,8.742277657347569e-8,0,0,1,0,0,-8.742277657347569e-8,0,-0.999999999999996,0,-4.300114154815674,-0.042160749435424805,3.1578071117401123,1],"name":"Shape_Sphere.033_77"},{"mesh":77,"name":"Object_158"},{"children":[160],"matrix":[-0.999999999999996,0,8.742277657347569e-8,0,0,1,0,0,-8.742277657347569e-8,0,-0.999999999999996,0,-2.1697134971618652,-0.042160749435424805,4.387807369232178,1],"name":"Shape_Sphere.032_78"},{"mesh":78,"name":"Object_160"},{"children":[162],"matrix":[-0.999999999999996,0,8.742277657347569e-8,0,0,1,0,0,-8.742277657347569e-8,0,-0.999999999999996,0,-0.03931388258934021,-0.042160749435424805,5.617806911468506,1],"name":"Shape_Sphere.031_79"},{"mesh":79,"name":"Object_162"},{"children":[164],"matrix":[-0.999999999999996,0,8.742277657347569e-8,0,0,1,0,0,-8.742277657347569e-8,0,-0.999999999999996,0,2.0911858081817627,-0.042160749435424805,6.84780740737915,1],"name":"Shape_Sphere.030_80"},{"mesh":80,"name":"Object_164"},{"children":[166],"matrix":[-0.999999999999996,0,8.742277657347569e-8,0,0,1,0,0,-8.742277657347569e-8,0,-0.999999999999996,0,-5.0102128982543945,-0.0421605110168457,1.9278072118759155,1],"name":"Shape_Sphere.029_81"},{"mesh":81,"name":"Object_166"},{"children":[168],"matrix":[-0.999999999999996,0,8.742277657347569e-8,0,0,1,0,0,-8.742277657347569e-8,0,-0.999999999999996,0,-4.300114154815674,-0.0421605110168457,0.6978071928024292,1],"name":"Shape_Sphere.028_82"},{"mesh":82,"name":"Object_168"},{"children":[170],"matrix":[-0.999999999999996,0,8.742277657347569e-8,0,0,1,0,0,-8.742277657347569e-8,0,-0.999999999999996,0,-2.8798134326934814,-0.042160749435424805,3.1578071117401123,1],"name":"Shape_Sphere.027_83"},{"mesh":83,"name":"Object_170"},{"children":[172],"matrix":[-0.999999999999996,0,8.742277657347569e-8,0,0,1,0,0,-8.742277657347569e-8,0,-0.999999999999996,0,-2.1697134971618652,-0.0421605110168457,1.9278072118759155,1],"name":"Shape_Sphere.026_84"},{"mesh":84,"name":"Object_172"},{"children":[174],"matrix":[-0.999999999999996,0,8.742277657347569e-8,0,0,1,0,0,-8.742277657347569e-8,0,-0.999999999999996,0,-0.7494139671325684,-0.042160749435424805,4.387807369232178,1],"name":"Shape_Sphere.025_85"},{"mesh":85,"name":"Object_174"},{"children":[176],"matrix":[-0.999999999999996,0,8.742277657347569e-8,0,0,1,0,0,-8.742277657347569e-8,0,-0.999999999999996,0,-0.03931388258934021,-0.042160749435424805,3.1578071117401123,1],"name":"Shape_Sphere.024_86"},{"mesh":86,"name":"Object_176"},{"children":[178],"matrix":[-0.999999999999996,0,8.742277657347569e-8,0,0,1,0,0,-8.742277657347569e-8,0,-0.999999999999996,0,1.380985975265503,-0.042160749435424805,5.617806911468506,1],"name":"Shape_Sphere.023_87"},{"mesh":87,"name":"Object_178"},{"children":[180],"matrix":[-0.999999999999996,0,8.742277657347569e-8,0,0,1,0,0,-8.742277657347569e-8,0,-0.999999999999996,0,2.0911858081817627,-0.042160749435424805,4.387807369232178,1],"name":"Shape_Sphere.022_88"},{"mesh":88,"name":"Object_180"},{"children":[182],"matrix":[-0.999999999999996,0,8.742277657347569e-8,0,0,1,0,0,-8.742277657347569e-8,0,-0.999999999999996,0,3.5114858150482178,-0.042160749435424805,6.84780740737915,1],"name":"Shape_Sphere.021_89"},{"mesh":89,"name":"Object_182"},{"children":[184],"matrix":[-0.999999999999996,0,8.742277657347569e-8,0,0,1,0,0,-8.742277657347569e-8,0,-0.999999999999996,0,4.221585273742676,-0.042160749435424805,5.617806911468506,1],"name":"Shape_Sphere.020_90"},{"mesh":90,"name":"Object_184"},{"children":[186],"matrix":[-0.999999999999996,0,8.742277657347569e-8,0,0,1,0,0,-8.742277657347569e-8,0,-0.999999999999996,0,-5.0102128982543945,-0.0421605110168457,-0.5321928262710571,1],"name":"Shape_Sphere.019_91"},{"mesh":91,"name":"Object_186"},{"children":[188],"matrix":[-0.999999999999996,0,8.742277657347569e-8,0,0,1,0,0,-8.742277657347569e-8,0,-0.999999999999996,0,-4.300114154815674,-0.0421605110168457,-1.7621928453445435,1],"name":"Shape_Sphere.018_92"},{"mesh":92,"name":"Object_188"},{"children":[190],"matrix":[-0.999999999999996,0,8.742277657347569e-8,0,0,1,0,0,-8.742277657347569e-8,0,-0.999999999999996,0,-2.8798134326934814,-0.0421605110168457,0.6978071928024292,1],"name":"Shape_Sphere.017_93"},{"mesh":93,"name":"Object_190"},{"children":[192],"matrix":[-0.999999999999996,0,8.742277657347569e-8,0,0,1,0,0,-8.742277657347569e-8,0,-0.999999999999996,0,-2.1697134971618652,-0.0421605110168457,-0.5321928262710571,1],"name":"Shape_Sphere.016_94"},{"mesh":94,"name":"Object_192"},{"children":[194],"matrix":[-0.999999999999996,0,8.742277657347569e-8,0,0,1,0,0,-8.742277657347569e-8,0,-0.999999999999996,0,-0.7494139671325684,-0.0421605110168457,1.9278072118759155,1],"name":"Shape_Sphere.015_95"},{"mesh":95,"name":"Object_194"},{"children":[196],"matrix":[-0.999999999999996,0,8.742277657347569e-8,0,0,1,0,0,-8.742277657347569e-8,0,-0.999999999999996,0,-0.03931388258934021,-0.0421605110168457,0.6978071928024292,1],"name":"Shape_Sphere.014_96"},{"mesh":96,"name":"Object_196"},{"children":[198],"matrix":[-0.999999999999996,0,8.742277657347569e-8,0,0,1,0,0,-8.742277657347569e-8,0,-0.999999999999996,0,1.380985975265503,-0.042160749435424805,3.1578071117401123,1],"name":"Shape_Sphere.013_97"},{"mesh":97,"name":"Object_198"},{"children":[200],"matrix":[-0.999999999999996,0,8.742277657347569e-8,0,0,1,0,0,-8.742277657347569e-8,0,-0.999999999999996,0,2.0911858081817627,-0.0421605110168457,1.9278072118759155,1],"name":"Shape_Sphere.012_98"},{"mesh":98,"name":"Object_200"},{"children":[202],"matrix":[-0.999999999999996,0,8.742277657347569e-8,0,0,1,0,0,-8.742277657347569e-8,0,-0.999999999999996,0,3.5114858150482178,-0.042160749435424805,4.387807369232178,1],"name":"Shape_Sphere.011_99"},{"mesh":99,"name":"Object_202"},{"children":[204],"matrix":[-0.999999999999996,0,8.742277657347569e-8,0,0,1,0,0,-8.742277657347569e-8,0,-0.999999999999996,0,4.221585273742676,-0.042160749435424805,3.1578071117401123,1],"name":"Shape_Sphere.010_100"},{"mesh":100,"name":"Object_204"},{"children":[206],"matrix":[-0.999999999999996,0,8.742277657347569e-8,0,0,1,0,0,-8.742277657347569e-8,0,-0.999999999999996,0,-5.0102128982543945,-0.0421605110168457,-2.9921927452087402,1],"name":"Shape_Sphere.009_101"},{"mesh":101,"name":"Object_206"},{"children":[208],"matrix":[-0.999999999999996,0,8.742277657347569e-8,0,0,1,0,0,-8.742277657347569e-8,0,-0.999999999999996,0,-4.300114154815674,-0.0421600341796875,-4.222193241119385,1],"name":"Shape_Sphere.008_102"},{"mesh":102,"name":"Object_208"},{"children":[210],"matrix":[-0.999999999999996,0,8.742277657347569e-8,0,0,1,0,0,-8.742277657347569e-8,0,-0.999999999999996,0,-2.8798134326934814,-0.0421605110168457,-1.7621928453445435,1],"name":"Shape_Sphere.007_103"},{"mesh":103,"name":"Object_210"},{"children":[212],"matrix":[-0.999999999999996,0,8.742277657347569e-8,0,0,1,0,0,-8.742277657347569e-8,0,-0.999999999999996,0,-2.1697134971618652,-0.0421605110168457,-2.9921927452087402,1],"name":"Shape_Sphere.006_104"},{"mesh":104,"name":"Object_212"},{"children":[214],"matrix":[-0.999999999999996,0,8.742277657347569e-8,0,0,1,0,0,-8.742277657347569e-8,0,-0.999999999999996,0,-0.7494139671325684,-0.0421605110168457,-0.5321928262710571,1],"name":"Shape_Sphere.005_105"},{"mesh":105,"name":"Object_214"},{"children":[216],"matrix":[-0.999999999999996,0,8.742277657347569e-8,0,0,1,0,0,-8.742277657347569e-8,0,-0.999999999999996,0,-0.03931388258934021,-0.0421605110168457,-1.7621928453445435,1],"name":"Shape_Sphere.004_106"},{"mesh":106,"name":"Object_216"},{"children":[218],"matrix":[-0.999999999999996,0,8.742277657347569e-8,0,0,1,0,0,-8.742277657347569e-8,0,-0.999999999999996,0,1.380985975265503,-0.0421605110168457,0.6978071928024292,1],"name":"Shape_Sphere.003_107"},{"mesh":107,"name":"Object_218"},{"children":[220],"matrix":[-0.999999999999996,0,8.742277657347569e-8,0,0,1,0,0,-8.742277657347569e-8,0,-0.999999999999996,0,2.0911858081817627,-0.0421605110168457,-0.5321928262710571,1],"name":"Shape_Sphere.002_108"},{"mesh":108,"name":"Object_220"},{"children":[222],"matrix":[-0.999999999999996,0,8.742277657347569e-8,0,0,1,0,0,-8.742277657347569e-8,0,-0.999999999999996,0,3.5114858150482178,-0.0421605110168457,1.9278072118759155,1],"name":"Shape_Sphere.001_109"},{"mesh":109,"name":"Object_222"},{"children":[224],"matrix":[-0.999999999999996,0,8.742277657347569e-8,0,0,1,0,0,-8.742277657347569e-8,0,-0.999999999999996,0,4.221585273742676,-0.0421605110168457,0.6978071928024292,1],"name":"Shape_Sphere_110"},{"mesh":110,"name":"Object_224"}],"scene":0,"scenes":[{"name":"Sketchfab_Scene","nodes":[0]}]}